<svg xmlns="http://www.w3.org/2000/svg" xmlns:xlink="http://www.w3.org/1999/xlink" width="25.766" height="21.856" viewBox="0 0 25.766 21.856">
  <defs>
    <clipPath id="clip-path">
      <rect width="25.766" height="21.856" fill="none"/>
    </clipPath>
  </defs>
  <g id="group" clip-path="url(#clip-path)">
    <g id="group-2" data-name="group" transform="translate(0 -38.84)">
      <g id="Group_3414" data-name="Group 3414" transform="translate(0 50.64)">
        <g id="Group_3413" data-name="Group 3413" transform="translate(0 0)">
          <path id="Path_3462" data-name="Path 3462" d="M402.213,273.32h1.993a5.183,5.183,0,0,0-.314,1.782v7.531a2.221,2.221,0,0,0,.128.744h-3.294a2.234,2.234,0,0,1-2.232-2.232v-4.105A3.724,3.724,0,0,1,402.213,273.32Z" transform="translate(-398.494 -273.32)" fill="#c7cfdd"/>
        </g>
      </g>
      <g id="Group_3416" data-name="Group 3416" transform="translate(20.054 50.64)">
        <g id="Group_3415" data-name="Group 3415" transform="translate(0 0)">
          <path id="Path_3463" data-name="Path 3463" d="M.314,275.1A5.183,5.183,0,0,0,0,273.321H1.993a3.724,3.724,0,0,1,3.719,3.719v4.105a2.234,2.234,0,0,1-2.232,2.232H.186a2.221,2.221,0,0,0,.128-.744Z" transform="translate(0 -273.321)" fill="#c7cfdd"/>
        </g>
      </g>
      <g id="Group_3418" data-name="Group 3418" transform="translate(6.886 48.702)">
        <g id="Group_3417" data-name="Group 3417" transform="translate(0 0)">
          <path id="Path_3464" data-name="Path 3464" d="M140.548,234.815H145.1a3.724,3.724,0,0,1,3.719,3.719v7.531a.744.744,0,0,1-.744.744H137.573a.744.744,0,0,1-.744-.744v-7.531A3.724,3.724,0,0,1,140.548,234.815Z" transform="translate(-136.829 -234.815)" fill="#c7cfdd"/>
        </g>
      </g>
      <g id="Group_3420" data-name="Group 3420" transform="translate(8.41 38.84)">
        <g id="Group_3419" data-name="Group 3419" transform="translate(0 0)">
          <path id="Path_3465" data-name="Path 3465" d="M171.587,38.84a4.472,4.472,0,1,1-4.473,4.473A4.478,4.478,0,0,1,171.587,38.84Z" transform="translate(-167.114 -38.84)" fill="#c7cfdd"/>
        </g>
      </g>
      <g id="Group_3422" data-name="Group 3422" transform="translate(17.392 43.009)">
        <g id="Group_3421" data-name="Group 3421" transform="translate(0 0)">
          <path id="Path_3466" data-name="Path 3466" d="M36.788,121.689a3.344,3.344,0,1,1-3.345,3.345A3.349,3.349,0,0,1,36.788,121.689Z" transform="translate(-33.443 -121.689)" fill="#c7cfdd"/>
        </g>
      </g>
      <g id="Group_3424" data-name="Group 3424" transform="translate(1.683 43.009)">
        <g id="Group_3423" data-name="Group 3423" transform="translate(0 0)">
          <path id="Path_3467" data-name="Path 3467" d="M348.952,121.689a3.345,3.345,0,1,1-3.345,3.345A3.349,3.349,0,0,1,348.952,121.689Z" transform="translate(-345.607 -121.689)" fill="#c7cfdd"/>
        </g>
      </g>
    </g>
  </g>
</svg>
