<svg xmlns="http://www.w3.org/2000/svg" width="22.549" height="22.551" viewBox="0 0 22.549 22.551">
  <g id="write" transform="translate(-6 -6.019)">
    <g id="Group_9822" data-name="Group 9822" transform="translate(22.485 25.966)">
      <path id="Path_7993" data-name="Path 7993" d="M44.868,54.6a.868.868,0,1,1,0-1.735h0a.867.867,0,1,1,1.734,0A1.737,1.737,0,0,1,44.868,54.6Z" transform="translate(-44 -52)" fill="#139047"/>
    </g>
    <g id="Group_9823" data-name="Group 9823" transform="translate(23.353 17.457)">
      <path id="Path_7994" data-name="Path 7994" d="M46.868,42.63A.868.868,0,0,1,46,41.762V33.253a.868.868,0,1,1,1.735,0v8.509A.868.868,0,0,1,46.868,42.63Z" transform="translate(-46 -32.385)" fill="#139047"/>
    </g>
    <g id="Group_9824" data-name="Group 9824" transform="translate(6.868 26.834)">
      <path id="Path_7995" data-name="Path 7995" d="M24.485,55.735H8.868a.868.868,0,0,1,0-1.735H24.485a.868.868,0,1,1,0,1.735Z" transform="translate(-8 -54)" fill="#139047"/>
    </g>
    <g id="Group_9825" data-name="Group 9825" transform="translate(6 25.966)">
      <path id="Path_7996" data-name="Path 7996" d="M7.735,54.6A1.737,1.737,0,0,1,6,52.868a.868.868,0,1,1,1.735,0h0a.867.867,0,1,1,0,1.734Z" transform="translate(-6 -52)" fill="#139047"/>
    </g>
    <g id="Group_9826" data-name="Group 9826" transform="translate(6 10.349)">
      <path id="Path_7997" data-name="Path 7997" d="M6.868,33.353A.868.868,0,0,1,6,32.485V16.868a.868.868,0,1,1,1.735,0V32.485A.868.868,0,0,1,6.868,33.353Z" transform="translate(-6 -16)" fill="#139047"/>
    </g>
    <g id="Group_9827" data-name="Group 9827" transform="translate(6 9.481)">
      <path id="Path_7998" data-name="Path 7998" d="M6.867,16.6A.867.867,0,0,1,6,15.735,1.737,1.737,0,0,1,7.735,14a.868.868,0,1,1,0,1.735h0A.867.867,0,0,1,6.867,16.6Z" transform="translate(-6 -14)" fill="#139047"/>
    </g>
    <g id="Group_9828" data-name="Group 9828" transform="translate(6.868 9.481)">
      <path id="Path_7999" data-name="Path 7999" d="M17.377,15.735H8.868a.868.868,0,0,1,0-1.735h8.509a.868.868,0,1,1,0,1.735Z" transform="translate(-8 -14)" fill="#139047"/>
    </g>
    <g id="Group_9829" data-name="Group 9829" transform="translate(14.646 6.646)">
      <path id="Path_8000" data-name="Path 8000" d="M26.8,17.674a.868.868,0,0,1-.613-1.481l8.474-8.474a.867.867,0,0,1,1.227,1.227L27.412,17.42a.864.864,0,0,1-.613.254Z" transform="translate(-25.931 -7.465)" fill="#139047"/>
    </g>
    <g id="Group_9830" data-name="Group 9830" transform="translate(13.809 15.119)">
      <path id="Path_8001" data-name="Path 8001" d="M24.868,32.638a.849.849,0,0,1-.183-.02.867.867,0,0,1-.666-1.03l.838-3.905a.868.868,0,0,1,1.7.364l-.838,3.905a.868.868,0,0,1-.848.686Z" transform="translate(-24 -26.997)" fill="#139047"/>
    </g>
    <g id="Group_9831" data-name="Group 9831" transform="translate(17.714 9.713)">
      <path id="Path_8002" data-name="Path 8002" d="M33.87,24.744a.868.868,0,0,1-.613-1.481l8.474-8.474a.867.867,0,0,1,1.227,1.227L34.483,24.49A.863.863,0,0,1,33.87,24.744Z" transform="translate(-33.002 -14.535)" fill="#139047"/>
    </g>
    <g id="Group_9832" data-name="Group 9832" transform="translate(13.808 18.187)">
      <path id="Path_8003" data-name="Path 8003" d="M24.866,36.642a.868.868,0,0,1-.181-1.716l3.905-.838a.867.867,0,1,1,.364,1.7l-3.905.838A.877.877,0,0,1,24.866,36.642Z" transform="translate(-23.999 -34.069)" fill="#139047"/>
    </g>
    <g id="Group_9833" data-name="Group 9833" transform="translate(21.587 8.18)">
      <path id="Path_8004" data-name="Path 8004" d="M45.864,15.8a.863.863,0,0,1-.613-.254l-3.068-3.068a.867.867,0,0,1,1.227-1.227l3.068,3.068a.868.868,0,0,1-.613,1.481Z" transform="translate(-41.929 -11)" fill="#139047"/>
    </g>
    <g id="Group_9834" data-name="Group 9834" transform="translate(23.119 6.019)">
      <path id="Path_8005" data-name="Path 8005" d="M49.4,11.449a.868.868,0,0,1-.614-1.481,1.321,1.321,0,0,0,0-1.839,1.353,1.353,0,0,0-1.841,0A.868.868,0,1,1,45.716,6.9a3.037,3.037,0,0,1,4.294,4.294.861.861,0,0,1-.613.254Z" transform="translate(-45.462 -6.019)" fill="#139047"/>
    </g>
  </g>
</svg>
