<svg xmlns="http://www.w3.org/2000/svg" width="26.596" height="22.015" viewBox="0 0 26.596 22.015">
  <g id="locker" transform="translate(0 0)">
    <path id="Path_21" data-name="Path 21" d="M.795,65.995A.834.834,0,0,0,0,66.864V87.141a.834.834,0,0,0,.795.869.834.834,0,0,0,.795-.869v-.869h6.5V65.995Zm2.755,3.476H5.7a.872.872,0,0,1,0,1.738H3.549a.872.872,0,0,1,0-1.738ZM5.7,82.8H3.549a.872.872,0,0,1,0-1.738H5.7a.872.872,0,0,1,0,1.738ZM5.7,77a.872.872,0,0,1,0-1.738A.872.872,0,0,1,5.7,77Z" transform="translate(0 -65.995)" fill="#c7cfdd"/>
    <path id="Path_22" data-name="Path 22" d="M366.627,65.995h-7.293V86.271h6.5v.869a.8.8,0,1,0,1.589,0V66.864A.834.834,0,0,0,366.627,65.995Zm-2.755,16.8h-2.154a.872.872,0,0,1,0-1.738h2.154a.872.872,0,0,1,0,1.738Zm-.795-6.662a.8.8,0,1,1,.794.869A.834.834,0,0,1,363.077,76.133Zm.795-4.924h-2.154a.872.872,0,0,1,0-1.738h2.154a.872.872,0,0,1,0,1.738Z" transform="translate(-340.826 -65.995)" fill="#c7cfdd"/>
    <path id="Path_23" data-name="Path 23" d="M182.666,65.995V86.271h7.769V65.995Zm2.808,3.476h2.154a.872.872,0,0,1,0,1.738h-2.154a.872.872,0,0,1,0-1.738Zm2.949,6.662a.8.8,0,1,1-.795-.869A.834.834,0,0,1,188.422,76.133Zm-.794,6.662h-2.154a.872.872,0,0,1,0-1.738h2.154a.872.872,0,0,1,0,1.738Z" transform="translate(-173.253 -65.995)" fill="#c7cfdd"/>
  </g>
</svg>
