<svg xmlns="http://www.w3.org/2000/svg" width="23.857" height="21.016" viewBox="0 0 23.857 21.016">
  <g id="export" transform="translate(0.5 -31.482)">
    <g id="Group_9482" data-name="Group 9482" transform="translate(0 33.427)">
      <g id="Group_9481" data-name="Group 9481">
        <path id="Path_7953" data-name="Path 7953" d="M15.714,74.046v5.67H2.857V66.859H7.143V64H1.429A1.429,1.429,0,0,0,0,65.431V81.145a1.428,1.428,0,0,0,1.429,1.429H17.143a1.427,1.427,0,0,0,1.429-1.429v-7.1Z" transform="translate(0 -64.002)" fill="#818fa9" stroke="#fff" stroke-width="1"/>
      </g>
    </g>
    <g id="Group_9484" data-name="Group 9484" transform="translate(5.714 31.998)">
      <g id="Group_9483" data-name="Group 9483">
        <path id="Path_7954" data-name="Path 7954" d="M144.857,36.427l-5.714-4.286a.715.715,0,0,0-1.143.571v2.143h-2.143A7.865,7.865,0,0,0,128,42.713a.714.714,0,0,0,1.353.32l.169-.336a6.393,6.393,0,0,1,5.75-3.556H138v2.143a.714.714,0,0,0,1.143.571l5.714-4.286a.714.714,0,0,0,0-1.143Z" transform="translate(-128 -31.998)" fill="#818fa9" stroke="#fff" stroke-width="1"/>
      </g>
    </g>
  </g>
</svg>
