<svg xmlns="http://www.w3.org/2000/svg" width="14.82" height="33.001" viewBox="0 0 14.82 33.001">
  <g id="Group_421" data-name="Group 421" transform="translate(-364.443 -525.032)">
    <path id="Path_186" data-name="Path 186" d="M68.508,10.985a2.978,2.978,0,1,0-2.977-2.977A2.981,2.981,0,0,0,68.508,10.985Z" transform="translate(303.346 520.002)" fill="#139047"/>
    <path id="Path_188" data-name="Path 188" d="M54.424,35.676l.241.057a1.38,1.38,0,0,0,1.328-.376L56,35.345l-1.659,6.432,3.536-.023v6.73a1.5,1.5,0,0,0,2.973.26,1.5,1.5,0,0,0,2.973-.26L63.8,41.776h3.558L65.713,35.36l.021.022a1.388,1.388,0,0,0,1.311.351l.237-.056a1.258,1.258,0,0,0,.807-.586,1.24,1.24,0,0,0,.129-.974l-.2-.738a54.285,54.285,0,0,0-2.673-8.118l-.067-.134a2.853,2.853,0,0,0-2.3-1.206H58.736a2.829,2.829,0,0,0-2.318,1.235,52.708,52.708,0,0,0-2.725,8.22l-.2.741a1.245,1.245,0,0,0,.129.975A1.26,1.26,0,0,0,54.424,35.676Z" transform="translate(311 508.041)" fill="#139047"/>
  </g>
</svg>
