<svg id="_040---Stars" data-name="040---Stars" xmlns="http://www.w3.org/2000/svg" width="46.674" height="37.231" viewBox="0 0 46.674 37.231">
  <path id="Shape" d="M9.205,12.1A3.1,3.1,0,0,1,6.1,9,3.1,3.1,0,0,1,3,12.1a3.1,3.1,0,0,1,3.1,3.1A3.1,3.1,0,0,1,9.205,12.1Z" transform="translate(-0.673 -2.019)" fill="#ffeb3a"/>
  <path id="Shape-2" data-name="Shape" d="M53.205,6.1A3.1,3.1,0,0,1,50.1,3,3.1,3.1,0,0,1,47,6.1a3.1,3.1,0,0,1,3.1,3.1A3.1,3.1,0,0,1,53.205,6.1Z" transform="translate(-10.545 -0.673)" fill="#ffeb3a"/>
  <path id="Shape-3" data-name="Shape" d="M18.506,37.664l-4.2-.512a1.557,1.557,0,0,0-1.35.5L10.1,40.782a1.578,1.578,0,0,1-2.723-.776l-.737-4.018a1.574,1.574,0,0,0-.923-1.163L1.954,33.2a1.575,1.575,0,0,1-.132-2.831l3.684-1.993a1.563,1.563,0,0,0,.814-1.218L6.786,23a1.572,1.572,0,0,1,2.637-.977l3.056,2.847a1.6,1.6,0,0,0,1.412.388l2.218-.481,1.877-.411A1.58,1.58,0,0,1,19.739,26.6l-1.792,3.684A1.568,1.568,0,0,0,18,31.769l.078.14,1.986,3.4a1.58,1.58,0,0,1-1.559,2.358Z" transform="translate(-0.224 -4.847)" fill="#f8ef4a"/>
  <path id="Shape-4" data-name="Shape" d="M24.248,36.1l-2.063-3.537a1.568,1.568,0,0,1-.054-1.481l1.792-3.684a1.58,1.58,0,0,0-1.753-2.234L21.06,25.4a1.573,1.573,0,0,1,.535,1.991L19.8,31.078a1.568,1.568,0,0,0,.054,1.481L21.921,36.1a1.575,1.575,0,0,1-.638,2.187l1.406.171A1.58,1.58,0,0,0,24.248,36.1Z" transform="translate(-4.407 -5.637)" fill="#fec108"/>
  <path id="Shape-5" data-name="Shape" d="M53.164,31.525,49.7,32.944a1.433,1.433,0,0,0-.869,1.047l-.745,3.661a1.443,1.443,0,0,1-2.5.667l-2.552-2.909a1.44,1.44,0,0,0-1.226-.481l-3.855.4a1.442,1.442,0,0,1-1.373-2.187l1.094-1.8.845-1.388a1.452,1.452,0,0,0,.078-1.357l-1.575-3.4a1.444,1.444,0,0,1,1.637-2.009l1.528.365,2.2.52a1.432,1.432,0,0,0,1.3-.334l2.839-2.544a1.44,1.44,0,0,1,2.4.939l.357,3.8A1.4,1.4,0,0,0,50,27.049l3.328,1.893a1.436,1.436,0,0,1-.163,2.583Z" transform="translate(-8.161 -4.672)" fill="#f8ef4a"/>
  <path id="Shape-6" data-name="Shape" d="M55.967,28.942l-3.328-1.893a1.4,1.4,0,0,1-.721-1.117l-.357-3.8a1.44,1.44,0,0,0-2.4-.939l-.219.2a1.419,1.419,0,0,1,.289.742l.357,3.8a1.4,1.4,0,0,0,.721,1.117l3.328,1.893a1.436,1.436,0,0,1-.163,2.583l-3.459,1.419a1.433,1.433,0,0,0-.869,1.047L48.4,37.653a1.421,1.421,0,0,1-.262.562l.092.1a1.443,1.443,0,0,0,2.5-.667l.745-3.661a1.433,1.433,0,0,1,.869-1.047L55.8,31.525a1.436,1.436,0,0,0,.163-2.583Z" transform="translate(-10.801 -4.672)" fill="#fec32d"/>
  <path id="Shape-7" data-name="Shape" d="M39.695,13.208l-3.9,3.971a2.271,2.271,0,0,0-.621,1.924l-1.528-.365a1.444,1.444,0,0,0-1.637,2.009l1.575,3.4a1.452,1.452,0,0,1-.078,1.357L32.66,26.89l-4.514-2.459a1.985,1.985,0,0,0-1.908,0c-5.035,2.76-5.006,2.775-5.243,2.854l-.078-.14a1.568,1.568,0,0,1-.054-1.481l1.792-3.684A1.58,1.58,0,0,0,20.9,19.747l-1.877.411.155-.97a2.28,2.28,0,0,0-.621-1.97l-3.917-3.956a2.249,2.249,0,0,1,1.14-3.785L21.25,8.64a2.094,2.094,0,0,0,1.567-1.194l2.467-5.228a2.033,2.033,0,0,1,3.723-.008L31.5,7.422a2.094,2.094,0,0,0,1.567,1.194l5.476.814a2.242,2.242,0,0,1,1.156,3.777Z" transform="translate(-3.139 -0.224)" fill="#139047"/>
  <path id="Shape-8" data-name="Shape" d="M42.008,9.433l-5.476-.814a2.094,2.094,0,0,1-1.567-1.194l-2.49-5.212a2.017,2.017,0,0,0-3.025-.823,2.133,2.133,0,0,1,.7.823l2.49,5.212A2.094,2.094,0,0,0,34.2,8.619l5.476.814a2.242,2.242,0,0,1,1.156,3.777l-3.9,3.971a2.239,2.239,0,0,0-.63,1.6,1.417,1.417,0,0,1,.808-.045l1.528.365a2.271,2.271,0,0,1,.621-1.924l3.9-3.971a2.242,2.242,0,0,0-1.156-3.777Z" transform="translate(-6.607 -0.226)" fill="#f2f4f3" opacity="0.368"/>
  <g id="Group_9468" data-name="Group 9468">
    <path id="Shape-9" data-name="Shape" d="M6.654,8.776a.776.776,0,0,0-1.551,0A2.327,2.327,0,0,1,2.776,11.1a.776.776,0,1,0,0,1.551A2.327,2.327,0,0,1,5.1,14.981a.776.776,0,1,0,1.551,0,2.327,2.327,0,0,1,2.327-2.327.776.776,0,0,0,0-1.551A2.327,2.327,0,0,1,6.654,8.776Zm-.776,3.878a3.912,3.912,0,0,0-.776-.776,3.912,3.912,0,0,0,.776-.776,3.912,3.912,0,0,0,.776.776A3.912,3.912,0,0,0,5.878,12.654Z" transform="translate(-0.449 -1.795)"/>
    <path id="Shape-10" data-name="Shape" d="M53.756,5.878a.776.776,0,0,0-.776-.776,2.327,2.327,0,0,1-2.327-2.327.776.776,0,1,0-1.551,0A2.327,2.327,0,0,1,46.776,5.1a.776.776,0,1,0,0,1.551A2.327,2.327,0,0,1,49.1,8.981a.776.776,0,1,0,1.551,0,2.327,2.327,0,0,1,2.327-2.327.776.776,0,0,0,.776-.776Zm-3.878.776a3.912,3.912,0,0,0-.776-.776,3.912,3.912,0,0,0,.776-.776,3.911,3.911,0,0,0,.776.776A3.911,3.911,0,0,0,49.878,6.654Z" transform="translate(-10.32 -0.449)"/>
    <path id="Shape-11" data-name="Shape" d="M45.55,23.592l-3.328-1.886a.663.663,0,0,1-.337-.518l-.351-3.8a2.217,2.217,0,0,0-3.682-1.443l-2.839,2.546a.674.674,0,0,1-.6.155l-1.59-.376a1.444,1.444,0,0,1,.388-.768l3.9-3.971a3.048,3.048,0,0,0,.7-3.121,2.882,2.882,0,0,0-2.3-1.967l-5.475-.814a1.314,1.314,0,0,1-.982-.762l-2.49-5.213A2.835,2.835,0,0,0,24.009,0H24a2.834,2.834,0,0,0-2.56,1.664L18.976,6.893a1.31,1.31,0,0,1-.983.758l-5.468.838a2.879,2.879,0,0,0-2.287,1.973,3.055,3.055,0,0,0,.712,3.123l3.92,3.956a1.5,1.5,0,0,1,.4,1.3l-.071.443-1.7.368a.8.8,0,0,1-.716-.2L9.73,16.61a2.353,2.353,0,0,0-3.941,1.463l-.465,4.15a.8.8,0,0,1-.414.616l-3.677,2a2.353,2.353,0,0,0,.188,4.228L5.181,30.69a.8.8,0,0,1,.47.591L6.392,35.3A2.338,2.338,0,0,0,8.06,37.139a2.367,2.367,0,0,0,.653.092,2.341,2.341,0,0,0,1.733-.769l2.854-3.13a.806.806,0,0,1,.688-.256l4.2.511a2.353,2.353,0,0,0,2.316-3.521L18.94,27.38l4.531-2.491a1.212,1.212,0,0,1,1.163,0l3.8,2.07-.674,1.108a2.217,2.217,0,0,0,2.121,3.357l3.85-.4a.661.661,0,0,1,.569.223l2.553,2.907a2.2,2.2,0,0,0,1.658.755,2.239,2.239,0,0,0,.577-.078,2.2,2.2,0,0,0,1.6-1.7l.745-3.659a.662.662,0,0,1,.4-.482L45.3,27.57a2.215,2.215,0,0,0,.251-3.978Zm-26.4,8.1a.786.786,0,0,1-.766.355l-4.2-.511a2.353,2.353,0,0,0-2.023.75L9.3,35.417a.8.8,0,0,1-1.381-.395L7.177,31A2.351,2.351,0,0,0,5.8,29.266L2.034,27.641a.8.8,0,0,1-.064-1.44l3.68-2A2.352,2.352,0,0,0,6.868,22.4l.465-4.15a.787.787,0,0,1,.518-.662.811.811,0,0,1,.284-.052.792.792,0,0,1,.543.216l3.056,2.845a2.352,2.352,0,0,0,2.1.576l4.092-.887a.8.8,0,0,1,.891,1.134L17.028,25.1a2.347,2.347,0,0,0,.085,2.214l2.061,3.532A.788.788,0,0,1,19.146,31.693Zm6.232-8.166a2.761,2.761,0,0,0-2.653,0l-4.357,2.4a.843.843,0,0,1,.05-.145l1.792-3.685A2.353,2.353,0,0,0,17.6,18.766l-.783.17a3.037,3.037,0,0,0-.841-2.487l-3.916-3.956a1.513,1.513,0,0,1-.343-1.544,1.319,1.319,0,0,1,1.048-.931l5.468-.835a2.854,2.854,0,0,0,2.154-1.629l2.463-5.227a1.259,1.259,0,0,1,2.322-.005L27.655,7.53A2.861,2.861,0,0,0,29.81,9.159l5.475.814a1.319,1.319,0,0,1,1.056.926A1.511,1.511,0,0,1,36,12.441l-3.9,3.966a2.978,2.978,0,0,0-.786,1.506l-.634-.15a2.217,2.217,0,0,0-2.521,3.089l1.575,3.4a.663.663,0,0,1-.036.621l-.462.759ZM44.71,26.139,41.246,27.56a2.211,2.211,0,0,0-1.33,1.6l-.745,3.661a.666.666,0,0,1-1.153.306l-2.553-2.9a2.217,2.217,0,0,0-1.893-.742l-3.85.4a.656.656,0,0,1-.63-.31.647.647,0,0,1-.006-.7L31.03,25.68a2.208,2.208,0,0,0,.117-2.084l-1.574-3.4a.666.666,0,0,1,.757-.931l3.723.88a2.215,2.215,0,0,0,1.99-.506l2.84-2.547a.666.666,0,0,1,1.106.434l.351,3.8a2.221,2.221,0,0,0,1.115,1.723l3.329,1.886a.665.665,0,0,1-.078,1.194Z" transform="translate(0 0)"/>
    <path id="Shape-12" data-name="Shape" d="M12.873,5.227a.776.776,0,0,0-1.1,0l-.227.227-.227-.227a.776.776,0,0,0-1.1,1.1l.227.227-.227.227a.776.776,0,1,0,1.1,1.1l.227-.227.227.227a.776.776,0,0,0,1.1-1.1l-.227-.227.227-.227a.776.776,0,0,0,0-1.1Z" transform="translate(-2.241 -1.122)"/>
    <path id="Shape-13" data-name="Shape" d="M57.873,11.227a.776.776,0,0,0-1.1,0l-.227.227-.227-.227a.776.776,0,0,0-1.1,1.1l.227.227-.227.227a.776.776,0,1,0,1.1,1.1l.227-.227.227.227a.776.776,0,0,0,1.1-1.1l-.227-.227.227-.227A.776.776,0,0,0,57.873,11.227Z" transform="translate(-12.337 -2.468)"/>
  </g>
</svg>
