<svg xmlns="http://www.w3.org/2000/svg" width="26.596" height="24.322" viewBox="0 0 26.596 24.322">
  <g id="layer1" transform="translate(0 0)">
    <path id="path33139" d="M1.858,280.6a1.281,1.281,0,0,0-1.329,1.215v20.267A1.284,1.284,0,0,0,1.858,303.3H25.8a1.283,1.283,0,0,0,1.328-1.218V281.811A1.281,1.281,0,0,0,25.8,280.6Zm.887,1.62H24.022a.426.426,0,0,1,.443.405v2.026h.445a.425.425,0,0,1,.442.407v2.43a.425.425,0,0,1-.442.407h-.445V296h.445a.425.425,0,0,1,.442.407v2.433a.426.426,0,0,1-.442.4h-.445v2.027a.426.426,0,0,1-.443.405H2.745a.426.426,0,0,1-.443-.405V282.622a.426.426,0,0,1,.443-.405Zm.443.811v17.836h20.39v-1.622H22.25a.426.426,0,0,1-.445-.4v-2.433A.426.426,0,0,1,22.25,296h1.329v-8.106H22.25a.426.426,0,0,1-.445-.407v-2.43a.426.426,0,0,1,.445-.407h1.329v-1.621Zm14.627,4.885a4.632,4.632,0,0,1,2.36.9l-1.234,1.128a.381.381,0,0,0,0,.573.473.473,0,0,0,.627,0l1.235-1.13a3.863,3.863,0,0,1,.98,2.156H20.031a.407.407,0,1,0,0,.812h1.752a3.86,3.86,0,0,1-.98,2.158l-1.236-1.129a.464.464,0,0,0-.318-.125l-.046,0a.437.437,0,0,0-.372.271.382.382,0,0,0,.111.423l1.235,1.13a4.637,4.637,0,0,1-2.362.9v-1.6a.388.388,0,0,0-.13-.291.465.465,0,0,0-.318-.119.425.425,0,0,0-.439.409v1.6a4.639,4.639,0,0,1-2.358-.9l1.236-1.13a.381.381,0,0,0,.1-.448.447.447,0,0,0-.421-.246.464.464,0,0,0-.3.123l-1.235,1.128a3.859,3.859,0,0,1-.98-2.157h1.751a.407.407,0,1,0,0-.812H12.964a3.862,3.862,0,0,1,.98-2.155l1.235,1.129a.474.474,0,0,0,.629,0,.382.382,0,0,0,0-.575l-1.235-1.129a4.635,4.635,0,0,1,2.357-.9v1.6a.4.4,0,0,0,.219.359.48.48,0,0,0,.449,0,.4.4,0,0,0,.219-.359Zm-9.75,1.195a2.986,2.986,0,0,1,3.1,2.84,2.708,2.708,0,0,1-.887,1.98v-1.98a2.138,2.138,0,0,0-2.215-2.029,2.14,2.14,0,0,0-2.219,2.029v1.976a2.707,2.707,0,0,1-.883-1.976A2.987,2.987,0,0,1,8.065,289.107Zm0,1.621a1.284,1.284,0,0,1,1.328,1.218v4.458a1.281,1.281,0,0,1-1.328,1.215,1.285,1.285,0,0,1-1.332-1.215v-4.458A1.288,1.288,0,0,1,8.065,290.728Zm9.308,0a1.221,1.221,0,1,0,1.329,1.218A1.287,1.287,0,0,0,17.374,290.728ZM2.3,304.106v.405a.425.425,0,0,0,.442.407H6.292a.425.425,0,0,0,.442-.407v-.405Zm18.614,0v.405a.426.426,0,0,0,.446.407H24.91a.425.425,0,0,0,.442-.407v-.405Z" transform="translate(-0.529 -280.597)" fill="#c7cfdd"/>
  </g>
</svg>
