<svg xmlns="http://www.w3.org/2000/svg" width="26.946" height="23.576" viewBox="0 0 26.946 23.576">
  <g id="Group_8106" data-name="Group 8106" transform="translate(0.001 -0.001)">
    <path id="Path_7446" data-name="Path 7446" d="M185.958,129.934v-3.368a3.368,3.368,0,0,0-3.368-3.368h-8.42a3.368,3.368,0,0,0-3.368,3.368v16.84a3.368,3.368,0,0,0,3.368,3.368h8.42a3.368,3.368,0,0,0,3.368-3.368v-3.368H182.59v3.368h-8.42v-16.84h8.42v3.368Z" transform="translate(-170.803 -123.197)" fill="#0e170f"/>
    <path id="Path_7447" data-name="Path 7447" d="M273.874,181.11l-2.383,2.383,3.368,3.368H260.4v3.368h14.457l-3.368,3.368,2.383,2.383,6.243-6.243a1.684,1.684,0,0,0,0-2.383Z" transform="translate(-253.666 -176.756)" fill="#0e170f"/>
  </g>
</svg>
