<svg xmlns="http://www.w3.org/2000/svg" width="24.38" height="24.475" viewBox="0 0 24.38 24.475">
  <g id="Group_12781" data-name="Group 12781" transform="translate(-1872.607 -472.262)">
    <path id="Path_14065" data-name="Path 14065" d="M134.146,6.214a.717.717,0,0,1-.717-.717V0H123.151A2.154,2.154,0,0,0,121,2.151v8.016c.236-.021.475-.033.717-.033A7.875,7.875,0,0,1,127.8,13h7.783a.717.717,0,1,1,0,1.434h-6.838a7.828,7.828,0,0,1,.83,2.868h6.008a.717.717,0,1,1,0,1.434h-6.008a7.89,7.89,0,0,1-3.325,5.736h11.245a2.154,2.154,0,0,0,2.151-2.151V6.214Zm1.434,3.92H125.063a.717.717,0,0,1,0-1.434H135.58a.717.717,0,1,1,0,1.434Z" transform="translate(1757.344 472.262)" fill="#c7cfdd"/>
    <path id="Path_14066" data-name="Path 14066" d="M7.453,242a6.453,6.453,0,1,0,6.453,6.453A6.461,6.461,0,0,0,7.453,242Zm1.912,7.171H7.453a.717.717,0,0,1-.717-.717v-2.868a.717.717,0,0,1,1.434,0v2.151h1.2a.717.717,0,0,1,0,1.434Z" transform="translate(1871.607 241.83)" fill="#c7cfdd"/>
  </g>
</svg>
