<svg xmlns="http://www.w3.org/2000/svg" width="38.428" height="38.428" viewBox="0 0 38.428 38.428">
  <g id="XMLID_1555_" transform="translate(0)">
    <path id="XMLID_1170_" d="M43.63,19.854,42.5,14.127l-1.132,1.132A18.463,18.463,0,0,0,10,28.463h3.3a15.16,15.16,0,0,1,25.73-10.869L37.9,18.724Z" transform="translate(-9.249 -9.249)" fill="#139047"/>
    <path id="XMLID_2024_" d="M9.588,0A9.588,9.588,0,1,1,0,9.588,9.588,9.588,0,0,1,9.588,0Z" transform="translate(9.588 9.588)" fill="#f8ef4a"/>
    <path id="XMLID_1305_" d="M53.929,264.609l1.131,5.727,1.132-1.132A18.463,18.463,0,0,0,87.559,256h-3.3a15.16,15.16,0,0,1-25.729,10.869l1.129-1.129Z" transform="translate(-49.881 -236.786)" fill="#139047"/>
    <g id="XMLID_2290_" transform="translate(0)">
      <path id="XMLID_2293_" d="M128.357,118a10.357,10.357,0,1,0,10.357,10.357A10.369,10.369,0,0,0,128.357,118Zm0,19.214a8.856,8.856,0,1,1,8.856-8.856A8.866,8.866,0,0,1,128.357,137.214Z" transform="translate(-109.144 -109.144)" fill="#0e170f"/>
      <path id="XMLID_2299_" d="M216.555,171.362c-.156-.055-.315-.113-.474-.172v-2.948a2.707,2.707,0,0,1,.674.328.751.751,0,0,0,.9-1.2,4.239,4.239,0,0,0-1.577-.68v-.622a.751.751,0,0,0-1.5,0v.617c-.1.021-.2.045-.3.076a2.8,2.8,0,0,0-1.919,2.194,2.476,2.476,0,0,0,.813,2.44,6.544,6.544,0,0,0,1.408.805v3.834a2.635,2.635,0,0,1-1.388-.531.751.751,0,0,0-.822,1.256,4.076,4.076,0,0,0,2.21.779v.639a.751.751,0,1,0,1.5,0v-.724a3.4,3.4,0,0,0,2.5-2.717A2.95,2.95,0,0,0,216.555,171.362Zm-2.457-1.147a1.009,1.009,0,0,1-.265-.98,1.338,1.338,0,0,1,.746-.987v2.281A3.76,3.76,0,0,1,214.1,170.215Zm3.006,4.274a1.894,1.894,0,0,1-1.024,1.382v-3.084A1.475,1.475,0,0,1,217.1,174.489Z" transform="translate(-196.117 -152.91)" fill="#0e170f"/>
      <path id="XMLID_2303_" d="M4.8,19.214A14.41,14.41,0,0,1,28.7,8.366l-.577.577a.751.751,0,0,0,.385,1.267l5.727,1.131a.751.751,0,0,0,.882-.882L33.986,4.733a.751.751,0,0,0-1.267-.385l-.617.617A19.226,19.226,0,0,0,8.325,3.377a.751.751,0,1,0,.853,1.235A17.724,17.724,0,0,1,31.593,6.546a.751.751,0,0,0,1.055-.006l.137-.137.641,3.248L30.179,9.01l.134-.134a.751.751,0,0,0-.007-1.069A15.911,15.911,0,0,0,3.32,18.463h-1.8a17.547,17.547,0,0,1,3.1-9.285.751.751,0,0,0-1.235-.853A19.07,19.07,0,0,0,0,19.214a.751.751,0,0,0,.751.751h3.3a.751.751,0,0,0,.751-.751Z" transform="translate(0 0)" fill="#0e170f"/>
      <path id="XMLID_2306_" d="M78.31,246h-3.3a.751.751,0,0,0-.751.751,14.41,14.41,0,0,1-23.9,10.848l.577-.577a.751.751,0,0,0-.385-1.267l-5.727-1.131a.751.751,0,0,0-.882.882l1.131,5.727a.751.751,0,0,0,1.267.385l.617-.617a19.213,19.213,0,0,0,32.1-14.25A.751.751,0,0,0,78.31,246Zm-5.938,13.275a17.711,17.711,0,0,1-24.9.143.75.75,0,0,0-1.055.006l-.137.137-.641-3.248,3.248.641-.134.134a.751.751,0,0,0,.007,1.069A15.911,15.911,0,0,0,75.741,247.5h1.8A17.586,17.586,0,0,1,72.372,259.275Z" transform="translate(-40.633 -227.537)" fill="#0e170f"/>
      <path id="XMLID_2308_" d="M72.8,73.551a.751.751,0,1,0-.531-.22A.756.756,0,0,0,72.8,73.551Z" transform="translate(-66.642 -66.642)" fill="#0e170f"/>
    </g>
  </g>
</svg>
