<svg xmlns="http://www.w3.org/2000/svg" width="26.597" height="27.799" viewBox="0 0 26.597 27.799">
  <g id="price-tag" transform="translate(0 0)">
    <path id="Path_7799" data-name="Path 7799" d="M18.759,12.625l-7.6,13.156a2.391,2.391,0,0,0,.875,3.266l7.25,4.189A3.319,3.319,0,0,1,19.046,32V16.805a5.26,5.26,0,0,1,1.473-3.654L23.57,10l-2.276.641a4.3,4.3,0,0,0-2.535,1.985Z" transform="translate(-7.275 -6.59)" fill="#c7cfdd"/>
    <path id="Path_7800" data-name="Path 7800" d="M4.086,21.553a2.391,2.391,0,0,0,0,3.381L6,26.847a3.348,3.348,0,0,1,.445-1.267c1.114-1.913,6.04-10.459,8.713-15.05C14.837,10.779,15.42,10.229,4.086,21.553Z" transform="translate(-3.386 -6.866)" fill="#c7cfdd"/>
    <path id="Path_7801" data-name="Path 7801" d="M42.666,36.913h.139V35h-.139a.956.956,0,1,0,0,1.913Z" transform="translate(-23.382 -19.634)" fill="#c7cfdd"/>
    <path id="Path_7802" data-name="Path 7802" d="M40.043,2.87a6.518,6.518,0,0,1-1.406,3.061,2.391,2.391,0,0,0-3.429,0l-4,4.175A4.3,4.3,0,0,0,30,13.085V28.278a2.391,2.391,0,0,0,2.391,2.391h9.086a2.391,2.391,0,0,0,2.391-2.391V13.085a4.3,4.3,0,0,0-1.205-2.979L39.981,7.322a6.217,6.217,0,0,1-2.147,1.516.962.962,0,1,1-.2-.961,4.955,4.955,0,0,0,.837-.478h0a6.722,6.722,0,0,0,.842-.751h0A7.279,7.279,0,0,0,41,2.99ZM36.557,17.279H36.7V16.117h.956v1.162h.139A1.913,1.913,0,0,1,39.7,19.192h-.956a.956.956,0,0,0-.956-.956h-.139v1.913h.139a1.913,1.913,0,1,1,0,3.826h-.139v1.162H36.7V23.974h-.139a1.913,1.913,0,0,1-1.913-1.913H35.6a.956.956,0,0,0,.956.956H36.7V21.1h-.139a1.913,1.913,0,1,1,0-3.826Z" transform="translate(-17.272 -2.87)" fill="#c7cfdd"/>
    <path id="Path_7803" data-name="Path 7803" d="M47.1,41.956A.956.956,0,0,0,46.139,41H46v1.913h.139A.956.956,0,0,0,47.1,41.956Z" transform="translate(-25.62 -22.765)" fill="#c7cfdd"/>
  </g>
</svg>
