<svg xmlns="http://www.w3.org/2000/svg" width="44.281" height="44.789" viewBox="0 0 44.281 44.789">
  <g id="Layer_53" transform="translate(0.001 -22.1)">
    <g id="Group_9459" data-name="Group 9459" transform="translate(-0.001 22.1)">
      <g id="Group_9307" data-name="Group 9307" transform="translate(37.156 17.763)">
        <g id="Group_9306" data-name="Group 9306">
          <path id="Path_7822" data-name="Path 7822" d="M239.742,107.414a1.647,1.647,0,0,1-1.321-1.291c0-.03-.059-.03-.059,0a1.646,1.646,0,0,1-1.321,1.291c-.03,0-.03.045,0,.059a1.647,1.647,0,0,1,1.321,1.291c0,.03.059.03.059,0a1.646,1.646,0,0,1,1.321-1.291C239.771,107.458,239.771,107.414,239.742,107.414Z" transform="translate(-237.019 -106.101)" fill="#fc657e"/>
        </g>
      </g>
      <g id="Group_9309" data-name="Group 9309" transform="translate(21.242 2.326)">
        <g id="Group_9308" data-name="Group 9308">
          <path id="Path_7823" data-name="Path 7823" d="M104.33,34.971a2.347,2.347,0,0,1-1.882-1.84c0-.042-.085-.042-.085,0a2.347,2.347,0,0,1-1.882,1.84c-.042,0-.042.063,0,.085a2.347,2.347,0,0,1,1.882,1.84c0,.042.085.042.085,0a2.347,2.347,0,0,1,1.882-1.84C104.373,35.035,104.373,34.971,104.33,34.971Z" transform="translate(-100.45 -33.1)" fill="#f5c84c"/>
        </g>
      </g>
      <g id="Group_9311" data-name="Group 9311" transform="translate(37.091 43.351)">
        <g id="Group_9310" data-name="Group 9310">
          <path id="Path_7824" data-name="Path 7824" d="M176.119,227.1a.719.719,0,1,0,.719.719A.719.719,0,0,0,176.119,227.1Z" transform="translate(-175.4 -227.1)" fill="#f5c84c"/>
        </g>
      </g>
      <g id="Group_9313" data-name="Group 9313" transform="translate(40.602 38.614)">
        <g id="Group_9312" data-name="Group 9312">
          <path id="Path_7825" data-name="Path 7825" d="M195,205.863h-.486v-.486a.681.681,0,0,0-.677-.677.668.668,0,0,0-.677.677v.486h-.486a.681.681,0,0,0-.677.677.668.668,0,0,0,.677.677h.486v.486a.681.681,0,0,0,.677.677.668.668,0,0,0,.677-.677v-.486H195a.681.681,0,0,0,.677-.677A.668.668,0,0,0,195,205.863Z" transform="translate(-192 -204.7)" fill="#70d6f9"/>
        </g>
      </g>
      <g id="Group_9315" data-name="Group 9315" transform="translate(28.844)">
        <g id="Group_9314" data-name="Group 9314">
          <path id="Path_7826" data-name="Path 7826" d="M137.119,22.1a.719.719,0,1,0,.719.719A.719.719,0,0,0,137.119,22.1Z" transform="translate(-136.4 -22.1)" fill="#87d147"/>
        </g>
      </g>
      <g id="Group_9317" data-name="Group 9317" transform="translate(4.089 4.448)">
        <g id="Group_9316" data-name="Group 9316">
          <path id="Path_7827" data-name="Path 7827" d="M29.812,44.119a2.812,2.812,0,0,0-1.451.4,2.843,2.843,0,0,0-2.435-1.39H24.468a5.147,5.147,0,0,0-5.132,5.132v2.3a2.065,2.065,0,0,1,1.3-.455,2.088,2.088,0,0,1,.319.025V49.9a.265.265,0,0,1,.321-.256,5.389,5.389,0,0,0,5.4-1.773.268.268,0,0,1,.4-.025,5.177,5.177,0,0,0,3.572,1.289.266.266,0,0,1,.257.261c0,.026,0,.052,0,.078v.665a2.065,2.065,0,0,1,1.759.557V46.959A2.849,2.849,0,0,0,29.812,44.119Z" transform="translate(-19.336 -43.134)" fill="#754e34"/>
        </g>
      </g>
      <g id="Group_9319" data-name="Group 9319" transform="translate(15.634 11.424)">
        <g id="Group_9318" data-name="Group 9318" transform="translate(0 0)">
          <path id="Path_7828" data-name="Path 7828" d="M74.262,76.123a2.058,2.058,0,0,0-.319.025v3.764c0,.112-.005.223-.012.333a2.075,2.075,0,1,0,.332-4.123Z" transform="translate(-73.93 -76.123)" fill="#f9d0b4"/>
        </g>
      </g>
      <g id="Group_9321" data-name="Group 9321" transform="translate(3.308 11.424)">
        <g id="Group_9320" data-name="Group 9320">
          <path id="Path_7829" data-name="Path 7829" d="M18.039,79.911V76.147a2.077,2.077,0,1,0,.012,4.1C18.044,80.134,18.039,80.023,18.039,79.911Z" transform="translate(-15.644 -76.122)" fill="#f9d0b4"/>
        </g>
      </g>
      <g id="Group_9323" data-name="Group 9323" transform="translate(5.703 9.079)">
        <g id="Group_9322" data-name="Group 9322" transform="translate(0 0)">
          <path id="Path_7830" data-name="Path 7830" d="M36.911,66.662a.266.266,0,0,0-.257-.261,5.175,5.175,0,0,1-3.572-1.289.268.268,0,0,0-.4.025,5.389,5.389,0,0,1-5.4,1.773.265.265,0,0,0-.321.256v4a4.972,4.972,0,1,0,9.943,0V66.74C36.911,66.714,36.911,66.688,36.911,66.662Z" transform="translate(-26.968 -65.034)" fill="#f9d0b4"/>
        </g>
      </g>
      <g id="Group_9325" data-name="Group 9325" transform="translate(5.28 21.495)">
        <g id="Group_9324" data-name="Group 9324">
          <path id="Path_7831" data-name="Path 7831" d="M29.48,125.524,27.7,123.746a1.72,1.72,0,0,1-.523.441c-.023.013-.237.119-.492.245a9.73,9.73,0,0,1-1.718.653l2.475,2.475a.539.539,0,0,0,.762,0l1.274-1.274A.54.54,0,0,0,29.48,125.524Z" transform="translate(-24.969 -123.746)" fill="#f8ef4a"/>
        </g>
      </g>
      <g id="Group_9327" data-name="Group 9327" transform="translate(11.4 21.493)">
        <g id="Group_9326" data-name="Group 9326">
          <path id="Path_7832" data-name="Path 7832" d="M56.824,124.4c-.277-.139-.517-.26-.561-.289a1.709,1.709,0,0,1-.414-.38l-1.78,1.78a.539.539,0,0,0,0,.762l1.274,1.274a.539.539,0,0,0,.762,0l2.476-2.476A9.766,9.766,0,0,1,56.824,124.4Z" transform="translate(-53.911 -123.736)" fill="#f8ef4a"/>
        </g>
      </g>
      <g id="Group_9329" data-name="Group 9329" transform="translate(0.529 19.621)">
        <g id="Group_9328" data-name="Group 9328">
          <path id="Path_7833" data-name="Path 7833" d="M22.6,120.672a1.962,1.962,0,0,0-1.48-1.793l-2.854-.718c-.076-.019-.15-.042-.225-.063l-2.476,2.476a.539.539,0,0,1-.762,0L13.53,119.3a.539.539,0,0,1,0-.762l1.78-1.78a1.711,1.711,0,0,1-.373-1.063v-.809a4.933,4.933,0,0,1-4.581,0v.809a1.715,1.715,0,0,1-.371,1.065l1.778,1.778a.539.539,0,0,1,0,.762l-1.274,1.274a.539.539,0,0,1-.762,0L7.252,118.1c-.074.021-.148.044-.222.062l-2.857.719a1.962,1.962,0,0,0-1.48,1.793L2.5,129.088a1.117,1.117,0,0,0,1.117,1.151H18.981l.1-4.581a1.962,1.962,0,0,1,1.48-1.793l2.1-.528Z" transform="translate(-2.501 -114.885)" fill="#f8ef4a"/>
        </g>
      </g>
      <g id="Group_9331" data-name="Group 9331" transform="translate(0.529 31.487)">
        <g id="Group_9330" data-name="Group 9330">
          <path id="Path_7834" data-name="Path 7834" d="M2.554,171,2.5,173.336a1.117,1.117,0,0,0,1.117,1.151H6.413V171Z" transform="translate(-2.501 -171)" fill="#f9d0b4"/>
        </g>
      </g>
      <g id="Group_9335" data-name="Group 9335" transform="translate(8.014 19.621)">
        <g id="Group_9334" data-name="Group 9334">
          <path id="Path_7836" data-name="Path 7836" d="M43.22,116.755a1.711,1.711,0,0,1-.373-1.063v-.809a4.931,4.931,0,0,1-4.581,0v.809a1.715,1.715,0,0,1-.371,1.065l1.778,1.778a.537.537,0,0,1,.131.541h1.5a.537.537,0,0,1,.131-.541Z" transform="translate(-37.895 -114.883)" fill="#f9d0b4"/>
        </g>
      </g>
      <g id="Group_9337" data-name="Group 9337" transform="translate(3.56 3.919)">
        <g id="Group_9336" data-name="Group 9336">
          <path id="Path_7837" data-name="Path 7837" d="M27.84,41.619a3.331,3.331,0,0,0-1.282.258,3.385,3.385,0,0,0-2.6-1.243H22.5a5.667,5.667,0,0,0-5.661,5.661v2.194a.529.529,0,1,0,1.057,0V46.294a4.608,4.608,0,0,1,4.6-4.6h1.458a2.327,2.327,0,0,1,1.982,1.133.529.529,0,0,0,.725.182,2.3,2.3,0,0,1,3.49,1.981v3.59a.529.529,0,1,0,1.057,0v-3.59A3.373,3.373,0,0,0,27.84,41.619Z" transform="translate(-16.835 -40.634)"/>
        </g>
      </g>
      <g id="Group_9339" data-name="Group 9339" transform="translate(15.269 10.895)">
        <g id="Group_9338" data-name="Group 9338" transform="translate(0 0)">
          <path id="Path_7838" data-name="Path 7838" d="M72.9,73.623c-.069,0-.137,0-.2.008a.529.529,0,0,0,.086,1.054c.039,0,.078,0,.118,0a1.547,1.547,0,1,1,0,3.094c-.041,0-.081,0-.12-.006a.529.529,0,1,0-.095,1.053c.071.006.142.01.215.01a2.6,2.6,0,1,0,0-5.209Z" transform="translate(-72.205 -73.623)"/>
        </g>
      </g>
      <g id="Group_9341" data-name="Group 9341" transform="translate(2.78 10.895)">
        <g id="Group_9340" data-name="Group 9340" transform="translate(0 0)">
          <path id="Path_7839" data-name="Path 7839" d="M16.478,78.233a.528.528,0,0,0-.584-.467,1.4,1.4,0,0,1-.146.008,1.547,1.547,0,1,1,0-3.094c.047,0,.093,0,.139.007a.529.529,0,1,0,.1-1.053c-.078-.007-.157-.011-.237-.011a2.6,2.6,0,1,0,0,5.208,2.365,2.365,0,0,0,.263-.015A.528.528,0,0,0,16.478,78.233Z" transform="translate(-13.144 -73.623)"/>
        </g>
      </g>
      <g id="Group_9344" data-name="Group 9344" transform="translate(5.175 8.551)">
        <g id="Group_9343" data-name="Group 9343" transform="translate(0 0)">
          <g id="Group_9342" data-name="Group 9342">
            <path id="Path_7840" data-name="Path 7840" d="M35.469,64.681a.794.794,0,0,0-.77-.779,4.679,4.679,0,0,1-3.217-1.138.8.8,0,0,0-1.182.073,4.829,4.829,0,0,1-4.873,1.584.794.794,0,0,0-.958.777v4a5.5,5.5,0,1,0,11,0V64.681Zm-4.341-1.186h0Zm3.285,5.7a4.443,4.443,0,0,1-8.886,0V65.513a5.9,5.9,0,0,0,5.424-1.806,5.759,5.759,0,0,0,3.462,1.239Z" transform="translate(-24.47 -62.535)"/>
          </g>
        </g>
      </g>
      <g id="Group_9347" data-name="Group 9347" transform="translate(4.751 20.966)">
        <g id="Group_9346" data-name="Group 9346">
          <g id="Group_9345" data-name="Group 9345">
            <path id="Path_7841" data-name="Path 7841" d="M27.882,123.179,26.1,121.4a.529.529,0,0,0-.788.045,1.181,1.181,0,0,1-.359.3c-.037.02-.238.119-.476.237a9.251,9.251,0,0,1-1.625.617.528.528,0,0,0-.233.883l2.475,2.475a1.068,1.068,0,0,0,1.51,0l1.274-1.273a1.068,1.068,0,0,0,0-1.51Zm-2.021,2.036a.01.01,0,0,1-.015,0l-1.864-1.864a10,10,0,0,0,.968-.416c.266-.132.488-.242.511-.255a2.278,2.278,0,0,0,.259-.165l1.415,1.427Z" transform="translate(-22.468 -121.246)"/>
          </g>
        </g>
      </g>
      <g id="Group_9350" data-name="Group 9350" transform="translate(10.872 20.964)">
        <g id="Group_9349" data-name="Group 9349">
          <g id="Group_9348" data-name="Group 9348">
            <path id="Path_7842" data-name="Path 7842" d="M57.119,122.97a.529.529,0,0,0-.37-.375,9.243,9.243,0,0,1-1.661-.635c-.43-.214-.51-.26-.511-.26a1.181,1.181,0,0,1-.286-.264.529.529,0,0,0-.789-.046l-1.78,1.78a1.068,1.068,0,0,0,0,1.51L53,125.954h0a1.069,1.069,0,0,0,1.51,0l2.476-2.476A.529.529,0,0,0,57.119,122.97Zm-3.361,2.236a.01.01,0,0,1-.015,0l-1.274-1.288,1.414-1.414c.04.03.081.058.122.085s.084.054.61.316a10.066,10.066,0,0,0,1.007.436Z" transform="translate(-51.41 -121.236)"/>
          </g>
        </g>
      </g>
      <g id="Group_9352" data-name="Group 9352" transform="translate(7.485 19.264)">
        <g id="Group_9351" data-name="Group 9351">
          <path id="Path_7843" data-name="Path 7843" d="M36.293,113.2a.529.529,0,0,0-.529.529v.637a1.19,1.19,0,0,1-.257.736.529.529,0,0,0,.829.657,2.253,2.253,0,0,0,.485-1.393v-.637A.529.529,0,0,0,36.293,113.2Z" transform="translate(-35.394 -113.198)"/>
        </g>
      </g>
      <g id="Group_9354" data-name="Group 9354" transform="translate(12.437 19.367)">
        <g id="Group_9353" data-name="Group 9353">
          <path id="Path_7844" data-name="Path 7844" d="M60.126,115.48a1.19,1.19,0,0,1-.259-.735v-.535a.529.529,0,1,0-1.057,0v.535a2.25,2.25,0,0,0,.487,1.391.529.529,0,0,0,.829-.656Z" transform="translate(-58.81 -113.682)"/>
        </g>
      </g>
      <g id="Group_9356" data-name="Group 9356" transform="translate(15.541 22.304)">
        <g id="Group_9355" data-name="Group 9355">
          <path id="Path_7845" data-name="Path 7845" d="M79.105,130.649a2.48,2.48,0,0,0-1.879-2.277l-2.853-.718-.123-.034-.091-.026a.529.529,0,1,0-.283,1.019l.078.022c.053.015.105.031.159.044l2.854.718a1.422,1.422,0,0,1,1.08,1.293l.057,2.488a.529.529,0,0,0,.528.517h.012a.529.529,0,0,0,.517-.541Z" transform="translate(-73.489 -127.574)"/>
        </g>
      </g>
      <g id="Group_9358" data-name="Group 9358" transform="translate(0 22.305)">
        <g id="Group_9357" data-name="Group 9357">
          <path id="Path_7846" data-name="Path 7846" d="M16.82,139.717H1.645a.588.588,0,0,1-.588-.61l.191-8.4a1.426,1.426,0,0,1,1.081-1.31l2.857-.719c.054-.014.108-.029.161-.045l.074-.021a.529.529,0,0,0-.284-1.018l-.085.024c-.041.012-.083.024-.124.034l-2.857.719a2.485,2.485,0,0,0-1.88,2.294L0,139.079a1.646,1.646,0,0,0,1.645,1.7H16.82a.529.529,0,1,0,0-1.057Z" transform="translate(0.001 -127.575)"/>
        </g>
      </g>
      <g id="Group_9360" data-name="Group 9360" transform="translate(9.547 23.285)">
        <g id="Group_9359" data-name="Group 9359">
          <path id="Path_7847" data-name="Path 7847" d="M46.835,132.211h-1.16a.529.529,0,0,0,0,1.057h1.16a.529.529,0,1,0,0-1.057Z" transform="translate(-45.146 -132.211)"/>
        </g>
      </g>
      <g id="Group_9401" data-name="Group 9401" transform="translate(20.482 9.434)">
        <g id="Group_9400" data-name="Group 9400">
          <path id="Path_7866" data-name="Path 7866" d="M107.333,67.7a2.812,2.812,0,0,0-1.451.4,2.843,2.843,0,0,0-2.435-1.39h-1.458a5.147,5.147,0,0,0-5.132,5.132v2.3a2.061,2.061,0,0,1,1.614-.43v-.239a.265.265,0,0,1,.321-.256,5.389,5.389,0,0,0,5.4-1.773.268.268,0,0,1,.4-.025,5.176,5.176,0,0,0,3.572,1.289.266.266,0,0,1,.257.261c0,.026,0,.052,0,.078v.665a2.062,2.062,0,0,1,1.759.557V70.535A2.848,2.848,0,0,0,107.333,67.7Z" transform="translate(-96.857 -66.71)" fill="#754e34"/>
        </g>
      </g>
      <g id="Group_9403" data-name="Group 9403" transform="translate(32.027 16.409)">
        <g id="Group_9402" data-name="Group 9402">
          <path id="Path_7867" data-name="Path 7867" d="M151.783,99.7a2.061,2.061,0,0,0-.319.025v3.764c0,.112-.005.223-.012.334a2.075,2.075,0,1,0,.332-4.123Z" transform="translate(-151.451 -99.698)" fill="#f9d0b4"/>
        </g>
      </g>
      <g id="Group_9405" data-name="Group 9405" transform="translate(19.701 16.409)">
        <g id="Group_9404" data-name="Group 9404">
          <path id="Path_7868" data-name="Path 7868" d="M95.56,103.487V99.723a2.075,2.075,0,1,0-.319,4.126,2.065,2.065,0,0,0,.332-.029C95.565,103.71,95.56,103.6,95.56,103.487Z" transform="translate(-93.165 -99.698)" fill="#f9d0b4"/>
        </g>
      </g>
      <g id="Group_9407" data-name="Group 9407" transform="translate(22.096 14.065)">
        <g id="Group_9406" data-name="Group 9406">
          <path id="Path_7869" data-name="Path 7869" d="M114.433,90.238a.266.266,0,0,0-.257-.261,5.174,5.174,0,0,1-3.572-1.289.268.268,0,0,0-.4.025,5.389,5.389,0,0,1-5.4,1.773.265.265,0,0,0-.321.256v4a4.972,4.972,0,0,0,9.943,0V90.315C114.433,90.29,114.433,90.264,114.433,90.238Z" transform="translate(-104.49 -88.61)" fill="#f9d0b4"/>
        </g>
      </g>
      <g id="Group_9409" data-name="Group 9409" transform="translate(21.673 26.48)">
        <g id="Group_9408" data-name="Group 9408">
          <path id="Path_7870" data-name="Path 7870" d="M107,149.1l-1.778-1.778a1.722,1.722,0,0,1-.523.441c-.023.013-.237.119-.492.245a9.731,9.731,0,0,1-1.718.653l2.475,2.475a.539.539,0,0,0,.762,0L107,149.863A.54.54,0,0,0,107,149.1Z" transform="translate(-102.49 -147.322)" fill="#139047"/>
        </g>
      </g>
      <g id="Group_9411" data-name="Group 9411" transform="translate(27.794 26.478)">
        <g id="Group_9410" data-name="Group 9410">
          <path id="Path_7871" data-name="Path 7871" d="M134.345,147.981c-.277-.139-.517-.26-.561-.289a1.713,1.713,0,0,1-.415-.38l-1.78,1.78a.539.539,0,0,0,0,.762l1.274,1.274a.539.539,0,0,0,.762,0l2.476-2.476A9.787,9.787,0,0,1,134.345,147.981Z" transform="translate(-131.432 -147.312)" fill="#139047"/>
        </g>
      </g>
      <g id="Group_9413" data-name="Group 9413" transform="translate(16.922 24.606)">
        <g id="Group_9412" data-name="Group 9412">
          <path id="Path_7872" data-name="Path 7872" d="M100.122,144.248a1.962,1.962,0,0,0-1.48-1.793l-2.854-.718c-.076-.019-.15-.042-.225-.063l-2.476,2.476a.539.539,0,0,1-.762,0l-1.274-1.274a.539.539,0,0,1,0-.762l1.78-1.78a1.711,1.711,0,0,1-.373-1.063v-.809a4.931,4.931,0,0,1-4.581,0v.809a1.715,1.715,0,0,1-.371,1.065l1.778,1.778a.539.539,0,0,1,0,.762l-1.274,1.274a.539.539,0,0,1-.762,0l-2.475-2.475c-.074.021-.148.044-.222.062l-2.857.719a1.962,1.962,0,0,0-1.48,1.793l-.191,8.416a1.117,1.117,0,0,0,1.117,1.151H99.2a1.117,1.117,0,0,0,1.117-1.151Z" transform="translate(-80.022 -138.46)" fill="#139047"/>
        </g>
      </g>
      <g id="Group_9415" data-name="Group 9415" transform="translate(33.302 36.473)">
        <g id="Group_9414" data-name="Group 9414">
          <path id="Path_7873" data-name="Path 7873" d="M161.337,194.575h-3.858v3.487h2.795a1.117,1.117,0,0,0,1.117-1.151Z" transform="translate(-157.479 -194.575)" fill="#f9d0b4"/>
        </g>
      </g>
      <g id="Group_9417" data-name="Group 9417" transform="translate(16.922 36.473)">
        <g id="Group_9416" data-name="Group 9416">
          <path id="Path_7874" data-name="Path 7874" d="M80.075,194.575l-.053,2.336a1.117,1.117,0,0,0,1.117,1.151h2.795v-3.487Z" transform="translate(-80.022 -194.575)" fill="#f9d0b4"/>
        </g>
      </g>
      <g id="Group_9419" data-name="Group 9419" transform="translate(24.407 24.606)">
        <g id="Group_9418" data-name="Group 9418">
          <path id="Path_7875" data-name="Path 7875" d="M120.741,140.331a1.711,1.711,0,0,1-.373-1.063v-.809a4.931,4.931,0,0,1-4.581,0v.809a1.715,1.715,0,0,1-.371,1.065l1.778,1.778a.537.537,0,0,1,.131.541h1.5a.537.537,0,0,1,.131-.541Z" transform="translate(-115.416 -138.459)" fill="#f9d0b4"/>
        </g>
      </g>
      <g id="Group_9421" data-name="Group 9421" transform="translate(19.953 8.905)">
        <g id="Group_9420" data-name="Group 9420">
          <path id="Path_7876" data-name="Path 7876" d="M105.361,65.195a3.333,3.333,0,0,0-1.282.258,3.385,3.385,0,0,0-2.6-1.243h-1.458a5.667,5.667,0,0,0-5.661,5.661v2.194a.529.529,0,0,0,1.057,0V69.871a4.608,4.608,0,0,1,4.6-4.6h1.458a2.327,2.327,0,0,1,1.982,1.133.529.529,0,0,0,.726.182,2.3,2.3,0,0,1,3.49,1.982v3.59a.529.529,0,1,0,1.057,0v-3.59A3.373,3.373,0,0,0,105.361,65.195Z" transform="translate(-94.356 -64.21)"/>
        </g>
      </g>
      <g id="Group_9423" data-name="Group 9423" transform="translate(31.662 15.881)">
        <g id="Group_9422" data-name="Group 9422">
          <path id="Path_7877" data-name="Path 7877" d="M150.423,97.2c-.069,0-.137,0-.2.008a.529.529,0,0,0,.086,1.054c.039,0,.078,0,.118,0a1.547,1.547,0,0,1,0,3.094c-.041,0-.081,0-.12-.006a.529.529,0,0,0-.095,1.053c.071.006.143.01.215.01a2.6,2.6,0,0,0,0-5.209Z" transform="translate(-149.727 -97.198)"/>
        </g>
      </g>
      <g id="Group_9425" data-name="Group 9425" transform="translate(19.173 15.881)">
        <g id="Group_9424" data-name="Group 9424">
          <path id="Path_7878" data-name="Path 7878" d="M94,101.81a.528.528,0,0,0-.582-.469,1.423,1.423,0,0,1-.148.008,1.547,1.547,0,1,1,0-3.094c.046,0,.092,0,.137.007a.529.529,0,0,0,.1-1.052c-.079-.008-.159-.012-.239-.012a2.6,2.6,0,1,0,0,5.209,2.416,2.416,0,0,0,.261-.015A.528.528,0,0,0,94,101.81Z" transform="translate(-90.664 -97.198)"/>
        </g>
      </g>
      <g id="Group_9428" data-name="Group 9428" transform="translate(21.568 13.536)">
        <g id="Group_9427" data-name="Group 9427">
          <g id="Group_9426" data-name="Group 9426">
            <path id="Path_7879" data-name="Path 7879" d="M112.99,88.255a.794.794,0,0,0-.77-.779A4.681,4.681,0,0,1,109,86.338a.8.8,0,0,0-1.182.073h0A4.828,4.828,0,0,1,102.948,88a.8.8,0,0,0-.666.162.787.787,0,0,0-.292.616v4a5.5,5.5,0,1,0,11,0V88.255Zm-4.341-1.186h0Zm3.285,5.7a4.443,4.443,0,1,1-8.886,0V89.088a5.9,5.9,0,0,0,5.424-1.805,5.761,5.761,0,0,0,3.462,1.239Z" transform="translate(-101.99 -86.11)"/>
          </g>
        </g>
      </g>
      <g id="Group_9431" data-name="Group 9431" transform="translate(21.145 25.951)">
        <g id="Group_9430" data-name="Group 9430">
          <g id="Group_9429" data-name="Group 9429">
            <path id="Path_7880" data-name="Path 7880" d="M105.4,146.754l-1.778-1.778a.528.528,0,0,0-.788.045,1.176,1.176,0,0,1-.357.3l-.478.238a9.237,9.237,0,0,1-1.625.617.528.528,0,0,0-.233.883l2.475,2.475a1.068,1.068,0,0,0,1.51,0l1.274-1.274A1.069,1.069,0,0,0,105.4,146.754Zm-2.021,2.036a.01.01,0,0,1-.015,0l-1.864-1.864a9.964,9.964,0,0,0,.968-.416c.264-.131.485-.241.511-.255a2.278,2.278,0,0,0,.259-.165l1.415,1.427Z" transform="translate(-99.989 -144.821)"/>
          </g>
        </g>
      </g>
      <g id="Group_9434" data-name="Group 9434" transform="translate(27.266 25.95)">
        <g id="Group_9433" data-name="Group 9433">
          <g id="Group_9432" data-name="Group 9432">
            <path id="Path_7881" data-name="Path 7881" d="M134.643,146.547a.529.529,0,0,0-.37-.375,9.264,9.264,0,0,1-1.661-.635c-.42-.21-.5-.257-.511-.26a1.189,1.189,0,0,1-.287-.264.528.528,0,0,0-.788-.045l-1.781,1.78a1.07,1.07,0,0,0,0,1.51l1.274,1.274h0a1.069,1.069,0,0,0,1.51,0l2.475-2.476A.53.53,0,0,0,134.643,146.547Zm-3.36,2.236a.011.011,0,0,1-.015,0l-1.273-1.288,1.414-1.414c.04.03.08.058.121.084s.082.052.611.317a10.161,10.161,0,0,0,1.007.436Z" transform="translate(-128.935 -144.812)"/>
          </g>
        </g>
      </g>
      <g id="Group_9436" data-name="Group 9436" transform="translate(23.878 24.25)">
        <g id="Group_9435" data-name="Group 9435">
          <path id="Path_7882" data-name="Path 7882" d="M113.814,136.774a.529.529,0,0,0-.529.529v.637a1.191,1.191,0,0,1-.257.737.529.529,0,0,0,.829.657,2.253,2.253,0,0,0,.485-1.393V137.3A.529.529,0,0,0,113.814,136.774Z" transform="translate(-112.915 -136.774)"/>
        </g>
      </g>
      <g id="Group_9438" data-name="Group 9438" transform="translate(28.83 24.352)">
        <g id="Group_9437" data-name="Group 9437">
          <path id="Path_7883" data-name="Path 7883" d="M137.648,139.055a1.174,1.174,0,0,1-.259-.735v-.535a.529.529,0,0,0-1.057,0v.535a2.252,2.252,0,0,0,.487,1.391.529.529,0,0,0,.829-.656Z" transform="translate(-136.331 -137.257)"/>
        </g>
      </g>
      <g id="Group_9440" data-name="Group 9440" transform="translate(16.393 27.29)">
        <g id="Group_9439" data-name="Group 9439">
          <path id="Path_7884" data-name="Path 7884" d="M98.677,154.225a2.48,2.48,0,0,0-1.879-2.277l-2.855-.718c-.042-.011-.083-.023-.125-.035l-.088-.025a.529.529,0,0,0-.283,1.019l.075.022c.054.016.108.031.162.045l2.854.718a1.422,1.422,0,0,1,1.081,1.292l.191,8.419a.588.588,0,0,1-.588.606H79.166a.589.589,0,0,1-.588-.61l.191-8.4a1.426,1.426,0,0,1,1.081-1.31l2.858-.719c.052-.013.1-.028.156-.043l.077-.022a.529.529,0,1,0-.281-1.019l-.09.026-.121.033-2.857.719a2.485,2.485,0,0,0-1.88,2.294l-.191,8.411a1.646,1.646,0,0,0,1.645,1.7H97.224a1.646,1.646,0,0,0,1.645-1.692Z" transform="translate(-77.52 -151.15)"/>
        </g>
      </g>
      <g id="Group_9442" data-name="Group 9442" transform="translate(25.94 28.27)">
        <g id="Group_9441" data-name="Group 9441">
          <path id="Path_7885" data-name="Path 7885" d="M124.355,155.786h-1.16a.529.529,0,0,0,0,1.057h1.16a.529.529,0,0,0,0-1.057Z" transform="translate(-122.666 -155.786)"/>
        </g>
      </g>
      <g id="Group_9446" data-name="Group 9446" transform="translate(3.912 27.718)">
        <g id="Group_9445" data-name="Group 9445">
          <path id="Path_7887" data-name="Path 7887" d="M19.029,153.176a.529.529,0,0,0-.529.529v6.519a.529.529,0,1,0,1.057,0V153.7A.529.529,0,0,0,19.029,153.176Z" transform="translate(-18.5 -153.176)"/>
        </g>
      </g>
      <g id="Group_9448" data-name="Group 9448" transform="translate(32.773 32.582)">
        <g id="Group_9447" data-name="Group 9447">
          <path id="Path_7888" data-name="Path 7888" d="M155.508,176.176a.529.529,0,0,0-.529.529v6.519a.529.529,0,0,0,1.057,0V176.7A.529.529,0,0,0,155.508,176.176Z" transform="translate(-154.979 -176.176)"/>
        </g>
      </g>
      <g id="Group_9450" data-name="Group 9450" transform="translate(20.305 32.582)">
        <g id="Group_9449" data-name="Group 9449">
          <path id="Path_7889" data-name="Path 7889" d="M96.55,176.176a.529.529,0,0,0-.529.529v6.519a.529.529,0,0,0,1.057,0V176.7A.529.529,0,0,0,96.55,176.176Z" transform="translate(-96.021 -176.176)"/>
        </g>
      </g>
      <g id="Group_9452" data-name="Group 9452" transform="translate(0.256 30.959)">
        <g id="Group_9451" data-name="Group 9451">
          <path id="Path_7890" data-name="Path 7890" d="M5.164,168.5H1.737a.529.529,0,0,0,0,1.057H5.164a.529.529,0,0,0,0-1.057Z" transform="translate(-1.208 -168.5)"/>
        </g>
      </g>
      <g id="Group_9456" data-name="Group 9456" transform="translate(32.971 35.944)">
        <g id="Group_9455" data-name="Group 9455">
          <path id="Path_7892" data-name="Path 7892" d="M159.917,192.075h-3.471a.529.529,0,1,0,0,1.057h3.471a.529.529,0,1,0,0-1.057Z" transform="translate(-155.917 -192.075)"/>
        </g>
      </g>
      <g id="Group_9458" data-name="Group 9458" transform="translate(16.671 35.944)">
        <g id="Group_9457" data-name="Group 9457">
          <path id="Path_7893" data-name="Path 7893" d="M82.789,192.075H79.362a.529.529,0,0,0,0,1.057h3.428a.529.529,0,1,0,0-1.057Z" transform="translate(-78.833 -192.075)"/>
        </g>
      </g>
    </g>
  </g>
</svg>
