<svg xmlns="http://www.w3.org/2000/svg" width="37.721" height="37.231" viewBox="0 0 37.721 37.231">
  <g id="hourglass" transform="translate(0 -3.281)">
    <g id="Group_9469" data-name="Group 9469" transform="translate(7.708 3.842)">
      <path id="Path_7922" data-name="Path 7922" d="M103.063,450.773H125.49v3.2H103.063Z" transform="translate(-103.063 -417.867)" fill="#139047"/>
      <path id="Path_7923" data-name="Path 7923" d="M382.938,450.773h1.5v3.2h-1.5Z" transform="translate(-362.007 -417.867)" fill="#4b6276"/>
      <path id="Path_7924" data-name="Path 7924" d="M103.063,10.781H125.49v3.6H103.063Z" transform="translate(-103.063 -10.781)" fill="#139047"/>
      <path id="Path_7925" data-name="Path 7925" d="M382.938,10.781h1.5v3.6h-1.5Z" transform="translate(-362.007 -10.781)" fill="#4b6276"/>
      <path id="Path_7926" data-name="Path 7926" d="M131.295,74.258a.747.747,0,0,1,0-1.256c2.956-1.9,6.9-5.222,6.9-9.442,0-3.37-1.18-4.583-1.18-4.583H119.19S118,60.19,118,63.56c0,4.217,3.939,7.538,6.9,9.438a.747.747,0,0,1,0,1.256c-2.956,1.9-6.9,5.222-6.9,9.442,0,3.37,1.18,4.583,1.18,4.583H137s1.189-1.213,1.189-4.583C138.193,79.479,134.253,76.158,131.295,74.258Z" transform="translate(-116.883 -55.372)" fill="#fff"/>
      <path id="Path_7927" data-name="Path 7927" d="M136.508,74.258a.747.747,0,0,1,0-1.256c2.956-1.9,6.9-5.222,6.9-9.442,0-3.37-1.18-4.583-1.18-4.583H124.4a4.012,4.012,0,0,0-.765,1.5h17.756a8,8,0,0,1,.516,3.087c0,3.649-3.891,6.694-6.211,8.184a2.243,2.243,0,0,0,0,3.773c2.319,1.489,6.21,4.532,6.21,8.179a7.922,7.922,0,0,1-.522,3.087H123.634a4.021,4.021,0,0,0,.759,1.5h17.823s1.189-1.213,1.189-4.583C143.406,79.479,139.466,76.158,136.508,74.258Z" transform="translate(-122.096 -55.372)" fill="#e6d0f1"/>
      <path id="Path_7928" data-name="Path 7928" d="M155.8,100.59c-2.165-1.39-5.8-4.2-5.8-7.424a8.083,8.083,0,0,1,.262-2.19h14.886a8.171,8.171,0,0,1,.259,2.19c0,3.223-3.633,6.038-5.8,7.429-.9.58-1.673,2.1-1.9,2.1S156.7,101.17,155.8,100.59Z" transform="translate(-146.49 -84.978)" fill="#f8ef4a"/>
      <path id="Path_7929" data-name="Path 7929" d="M250.311,90.977h-1.5l.241,1.5c.016.207.025.438.025.694,0,1.835-1.863,4.084-5.111,6.17a5.117,5.117,0,0,0-1.1,1,8.475,8.475,0,0,0-.821,1.369c.394.519.69.992.819.993.231,0,1-1.519,1.9-2.1,2.166-1.391,5.8-4.206,5.8-7.429A8.171,8.171,0,0,0,250.311,90.977Z" transform="translate(-231.653 -84.979)" fill="#ff905b"/>
      <path id="Path_7930" data-name="Path 7930" d="M171.683,342.44c-1.1-2.262-4.918-6.17-7.157-6.17s-6.048,3.911-7.147,6.17Z" transform="translate(-153.318 -311.927)" fill="#f8ef4a"/>
      <path id="Path_7931" data-name="Path 7931" d="M239.347,336.271a3.011,3.011,0,0,0-1.1.246,15.845,15.845,0,0,1,6.76,5.925h1.5C245.4,340.179,241.586,336.271,239.347,336.271Z" transform="translate(-228.138 -311.928)" fill="#ff905b"/>
    </g>
    <g id="Group_9471" data-name="Group 9471" transform="translate(0 3.281)">
      <path id="Path_7932" data-name="Path 7932" d="M111.82,4.4h6.17V6.885H96.685V4.4H110.7V3.281H95.563V8.007h1.865c-.037.08-.074.163-.111.254a9.973,9.973,0,0,0-.637,3.768,9.2,9.2,0,0,0,2.473,5.951,21,21,0,0,0,4.683,3.959.186.186,0,0,1,0,.312,23.466,23.466,0,0,0-3.467,2.681l.772.814a22.347,22.347,0,0,1,3.3-2.551,1.308,1.308,0,0,0,0-2.2,19.884,19.884,0,0,1-4.434-3.741A8.12,8.12,0,0,1,97.8,12.03a7.308,7.308,0,0,1,.906-4.022h17.274a7.57,7.57,0,0,1,.891,4.022,8.126,8.126,0,0,1-2.207,5.228A19.885,19.885,0,0,1,110.233,21a1.308,1.308,0,0,0,0,2.2,19.884,19.884,0,0,1,4.434,3.741,8.12,8.12,0,0,1,2.206,5.225,7.513,7.513,0,0,1-.9,4.022H98.7a7.326,7.326,0,0,1-.9-4.022,8.434,8.434,0,0,1,2.578-5.648l-.825-.76a9.354,9.354,0,0,0-2.128,10.43H95.563v4.324h23.549V36.187h-1.865c.037-.08.074-.163.111-.254a9.973,9.973,0,0,0,.637-3.768,9.2,9.2,0,0,0-2.473-5.951,21,21,0,0,0-4.683-3.959.186.186,0,0,1,0-.312,21,21,0,0,0,4.682-3.96,9.205,9.205,0,0,0,2.474-5.954,9.543,9.543,0,0,0-.747-4.022h1.864V3.281H111.82V4.4Zm6.17,34.987H96.685V37.309H117.99Z" transform="translate(-88.416 -3.281)"/>
      <path id="Path_7933" data-name="Path 7933" d="M152.972,94.127c2.262-1.453,6.056-4.411,6.056-7.9a8.8,8.8,0,0,0-.279-2.341l-.114-.41H142.9l-.115.408a8.7,8.7,0,0,0-.283,2.342c0,3.487,3.794,6.444,6.055,7.9h0a5.694,5.694,0,0,1,1.228,1.365c.386.532.6.825.978.827h0c.38,0,.594-.294.981-.827A5.692,5.692,0,0,1,152.972,94.127Zm-2.133.7-.074.1-.073-.1a6.467,6.467,0,0,0-1.53-1.65h0a19,19,0,0,1-3.6-2.934,6.148,6.148,0,0,1-1.939-4.018,8.422,8.422,0,0,1,.143-1.629h14a8.515,8.515,0,0,1,.141,1.629,6.153,6.153,0,0,1-1.939,4.021,19,19,0,0,1-3.6,2.935A6.464,6.464,0,0,0,150.839,94.828Z" transform="translate(-131.843 -77.478)"/>
      <path id="Path_7934" data-name="Path 7934" d="M145.786,335.256l-.392.806H156.8V334.94H147.26c1.413-2.157,4.481-5.048,6.177-5.048s4.774,2.892,6.187,5.048h-1.7v1.122h3.565l-.392-.806a15.662,15.662,0,0,0-3.276-4.1c-2.26-2.075-3.717-2.385-4.385-2.385s-2.125.31-4.381,2.386A15.711,15.711,0,0,0,145.786,335.256Z" transform="translate(-134.52 -304.427)"/>
      <path id="Path_7935" data-name="Path 7935" d="M245.438,269.938h1.122v1.117h-1.122Z" transform="translate(-227.082 -249.995)"/>
      <path id="Path_7936" data-name="Path 7936" d="M245.438,299.938h1.122v1.117h-1.122Z" transform="translate(-227.082 -277.751)"/>
      <path id="Path_7937" data-name="Path 7937" d="M35.576,91.771H36.7v2.094h-1.12Z" transform="translate(-32.915 -85.153)"/>
      <path id="Path_7938" data-name="Path 7938" d="M58.125,127.326h2.094v1.12H58.125Z" transform="translate(-53.778 -118.049)"/>
      <path id="Path_7939" data-name="Path 7939" d="M35.576,150.229H36.7v2.094h-1.12Z" transform="translate(-32.915 -139.239)"/>
      <path id="Path_7940" data-name="Path 7940" d="M0,127.326H2.094v1.12H0Z" transform="translate(0 -118.049)"/>
      <path id="Path_7941" data-name="Path 7941" d="M453.826,286.708h1.12V288.8h-1.12Z" transform="translate(-419.885 -265.511)"/>
      <path id="Path_7942" data-name="Path 7942" d="M476.375,322.264h2.094v1.12h-2.094Z" transform="translate(-440.748 -298.408)"/>
      <path id="Path_7943" data-name="Path 7943" d="M453.826,345.167h1.12v2.094h-1.12Z" transform="translate(-419.885 -319.598)"/>
      <path id="Path_7944" data-name="Path 7944" d="M418.25,322.264h2.094v1.12H418.25Z" transform="translate(-386.97 -298.408)"/>
      <path id="Path_7945" data-name="Path 7945" d="M86.125,232.451h1.122v1.12H86.125Z" transform="translate(-79.684 -215.312)"/>
      <path id="Path_7946" data-name="Path 7946" d="M431.25,172.451h1.122v1.12H431.25Z" transform="translate(-398.997 -159.799)"/>
      <path id="Path_7947" data-name="Path 7947" d="M29,337.389h1.122v1.12H29Z" transform="translate(-26.831 -312.402)"/>
      <path id="Path_7948" data-name="Path 7948" d="M438.75,427.389h1.122v1.12H438.75Z" transform="translate(-405.937 -395.671)"/>
      <g id="Group_9470" data-name="Group 9470" transform="translate(13.092 9.007)">
        <path id="Path_7949" data-name="Path 7949" d="M178.763,128.511c-.317-.235-.623-.477-.908-.717l.723-.857c.267.225.554.452.853.673Zm-1.77-1.5a10.915,10.915,0,0,1-.8-.875l.872-.706a9.767,9.767,0,0,0,.714.784Zm-1.485-1.878a3.955,3.955,0,0,1-.458-1.219l1.1-.2a2.848,2.848,0,0,0,.334.869Z" transform="translate(-175.05 -123.715)" fill="#fff"/>
      </g>
    </g>
  </g>
</svg>
