<svg xmlns="http://www.w3.org/2000/svg" width="22.85" height="29.903" viewBox="0 0 22.85 29.903">
  <g id="no-sick-people" transform="translate(-60.85 0.15)">
    <path id="Path_7981" data-name="Path 7981" d="M96.2,64.6a2.6,2.6,0,1,0-2.6,2.6A2.6,2.6,0,0,0,96.2,64.6Zm-2.6.867a.867.867,0,1,1,.867-.867A.868.868,0,0,1,93.6,65.469Z" transform="translate(-28.265 -58.415)" fill="#139047" stroke="#fff" stroke-width="0.3"/>
    <path id="Path_7982" data-name="Path 7982" d="M61,156.336v3.828l1.735,1.735v7.446h5.2V161.9l1.735-1.735v-3.828a4.336,4.336,0,1,0-8.673,0Zm1.735,0a2.6,2.6,0,1,1,5.2,0v3.11L66.2,161.181v6.43H64.469v-6.43l-1.735-1.735Z" transform="translate(0 -143.212)" fill="#139047" stroke="#fff" stroke-width="0.3"/>
    <path id="Path_7983" data-name="Path 7983" d="M336.2,64.6a2.6,2.6,0,1,0-2.6,2.6A2.6,2.6,0,0,0,336.2,64.6Zm-2.6.867a.867.867,0,1,1,.867-.867A.868.868,0,0,1,333.6,65.469Z" transform="translate(-254.389 -58.415)" fill="#139047" stroke="#fff" stroke-width="0.3"/>
    <path id="Path_7984" data-name="Path 7984" d="M309.673,156.336a4.336,4.336,0,1,0-8.673,0v3.828l1.735,1.735v7.446h5.2V161.9l1.735-1.735Zm-1.735,3.11-1.735,1.735v6.43h-1.735v-6.43l-1.735-1.735v-3.11a2.6,2.6,0,1,1,5.2,0Z" transform="translate(-226.124 -143.212)" fill="#139047" stroke="#fff" stroke-width="0.3"/>
    <path id="Path_7985" data-name="Path 7985" d="M241,0h1.735V3.585H241Z" transform="translate(-169.593)" fill="#139047" stroke="#fff" stroke-width="0.3"/>
    <path id="Path_7986" data-name="Path 7986" d="M241,92h1.735v3.469H241Z" transform="translate(-169.593 -86.681)" fill="#139047" stroke="#fff" stroke-width="0.3"/>
    <path id="Path_7987" data-name="Path 7987" d="M241,182h1.735v3.469H241Z" transform="translate(-169.593 -171.477)" fill="#139047" stroke="#fff" stroke-width="0.3"/>
    <path id="Path_7988" data-name="Path 7988" d="M241,272h1.735v3.469H241Z" transform="translate(-169.593 -256.274)" fill="#139047" stroke="#fff" stroke-width="0.3"/>
    <path id="Path_7989" data-name="Path 7989" d="M241,362h1.735v3.469H241Z" transform="translate(-169.593 -341.07)" fill="#139047" stroke="#fff" stroke-width="0.3"/>
    <path id="Path_7990" data-name="Path 7990" d="M241,452h1.735v3.469H241Z" transform="translate(-169.593 -425.866)" fill="#139047" stroke="#fff" stroke-width="0.3"/>
  </g>
</svg>
