<svg xmlns="http://www.w3.org/2000/svg" width="34.584" height="35.702" viewBox="0 0 34.584 35.702">
  <g id="Group_12751" data-name="Group 12751" transform="translate(-1227 -186.649)">
    <path id="Path_14073" data-name="Path 14073" d="M206.348,96.674a7.119,7.119,0,0,0-6.971-7.074h-.1a7.113,7.113,0,0,0-7.074,7.074,6.935,6.935,0,0,0,.411,2.361c.063.174.126.339.205.505l.016.032a7.208,7.208,0,0,0,3.355,3.458,6.947,6.947,0,0,0,3.095.726A7.129,7.129,0,0,0,206.348,96.674Z" transform="translate(1048.137 101.763)" fill="#139047"/>
    <path id="Path_14074" data-name="Path 14074" d="M121.285,32.19a9.723,9.723,0,0,0-8.242,9.5,9.162,9.162,0,0,0,.166,1.753,7.073,7.073,0,1,1,8.077-11.25Z" transform="translate(1124.768 156.749)" fill="#fec32d"/>
    <path id="Path_14075" data-name="Path 14075" d="M28.286,233.037a16.763,16.763,0,0,1,10.066-9.245A9.85,9.85,0,0,1,34.634,219,14.261,14.261,0,0,0,23.3,231.356a1.356,1.356,0,0,0,1.35,1.682Z" transform="translate(1203.721 -17.421)" fill="#fec32d"/>
    <path id="Path_14076" data-name="Path 14076" d="M110.984,301.866a14.554,14.554,0,0,0-7.216,6.513,13.914,13.914,0,0,0-1.563,4.887,1.356,1.356,0,0,0,1.35,1.682l25.6.166a1.428,1.428,0,0,0,1.35-1.682A14.363,14.363,0,0,0,116.36,300.8,14.045,14.045,0,0,0,110.984,301.866Z" transform="translate(1131.05 -92.763)" fill="#139047"/>
  </g>
</svg>
