<svg xmlns="http://www.w3.org/2000/svg" width="26.595" height="20.726" viewBox="0 0 26.595 20.726">
  <g id="noun_subscription_456176" transform="translate(-0.001)">
    <g id="Group_101" data-name="Group 101" transform="translate(0.001 0)">
      <rect id="Rectangle_22" data-name="Rectangle 22" width="19.055" height="1.549" transform="translate(3.787)" fill="#0e170f"/>
      <rect id="Rectangle_23" data-name="Rectangle 23" width="22.842" height="1.549" transform="translate(1.894 3.271)" fill="#0e170f"/>
      <path id="Path_11" data-name="Path 11" d="M11,38.9V53.084H37.595V38.9Zm15.752,5.3h1.125a4.082,4.082,0,0,0-7.433.551,4.241,4.241,0,0,0,.1,3.167,4,4,0,0,0,2.284,2.135.857.857,0,0,1,.511,1.1.841.841,0,0,1-.784.551.988.988,0,0,1-.307-.069,5.744,5.744,0,0,1-3.239-3.03A5.8,5.8,0,1,1,29.719,44.2H30.98l-2.046,3.684Z" transform="translate(-11 -32.359)" fill="#0e170f"/>
    </g>
  </g>
</svg>
