<svg xmlns="http://www.w3.org/2000/svg" width="26.596" height="26.428" viewBox="0 0 26.596 26.428">
  <g id="support" transform="translate(0 0)">
    <path id="Path_7429" data-name="Path 7429" d="M28.166,27.98A2.278,2.278,0,1,0,25.888,25.7,2.278,2.278,0,0,0,28.166,27.98Z" transform="translate(-14.869 -13.855)" fill="#c7cfdd"/>
    <path id="Path_7430" data-name="Path 7430" d="M26.8,37.228a5.453,5.453,0,0,0,3.941-1.7c.011-.011.022-.028.033-.039a6.093,6.093,0,0,0-7.948,0c.011.011.022.028.033.039A5.453,5.453,0,0,0,26.8,37.228Z" transform="translate(-13.505 -18.577)" fill="#c7cfdd"/>
    <path id="Path_7431" data-name="Path 7431" d="M7.565,20.968a2.392,2.392,0,0,0-1.436,2.976c.111.31.261.721.443,1.125a2.2,2.2,0,0,0,1.241,1.169,2.441,2.441,0,0,0,1.862-.067,2.25,2.25,0,0,1,2.511.089,2.264,2.264,0,0,1,.072,2.555,2.434,2.434,0,0,0-.089,1.879,2.309,2.309,0,0,0,1.214,1.319c.344.161.676.3.987.421a2.394,2.394,0,0,0,.831.15,2.314,2.314,0,0,0,.975-.216,2.4,2.4,0,0,0,1.258-1.386c.4-1.092,1.114-1.774,1.868-1.774s1.469.682,1.868,1.774a2.4,2.4,0,0,0,1.258,1.386,2.324,2.324,0,0,0,1.807.067c.31-.116.643-.26.987-.421a2.309,2.309,0,0,0,1.214-1.319,2.419,2.419,0,0,0-.089-1.873,2.272,2.272,0,0,1,.072-2.561,2.249,2.249,0,0,1,2.516-.083,2.426,2.426,0,0,0,1.857.061,2.182,2.182,0,0,0,1.236-1.164c.188-.41.338-.82.449-1.131.006,0,.006-.006.006-.011a2.391,2.391,0,0,0-1.447-2.965c-1.031-.4-1.668-1.1-1.668-1.823,0-.7.615-1.391,1.613-1.8a2.365,2.365,0,0,0,1.291-3.054c-.122-.316-.266-.637-.443-.992a2.338,2.338,0,0,0-3.01-1.131,2.179,2.179,0,0,1-2.4-.133,2.133,2.133,0,0,1-.172-2.317A2.362,2.362,0,0,0,25.057,6.7c-.338-.15-.66-.277-.981-.394a2.368,2.368,0,0,0-3,1.258c-.421.948-1.081,1.519-1.768,1.519s-1.347-.571-1.762-1.519a2.377,2.377,0,0,0-3.01-1.258c-.321.116-.643.244-.987.394a2.36,2.36,0,0,0-1.186,3.009,2.141,2.141,0,0,1-.172,2.322,2.2,2.2,0,0,1-2.405.133,2.339,2.339,0,0,0-3,1.131c-.177.355-.321.682-.443.992a2.365,2.365,0,0,0,1.291,3.054c1,.41,1.613,1.1,1.613,1.8C9.239,19.87,8.6,20.569,7.565,20.968ZM19.3,12.832a6.539,6.539,0,1,1-6.546,6.54A6.55,6.55,0,0,1,19.3,12.832Z" transform="translate(-6.007 -6.158)" fill="#c7cfdd"/>
  </g>
</svg>
