<svg xmlns="http://www.w3.org/2000/svg" width="18.781" height="20" viewBox="0 0 18.781 20">
  <g id="Group_9805" data-name="Group 9805" transform="translate(18885.738 -2849)">
    <path id="Path_7516" data-name="Path 7516" d="M216.573,21.8l2.358-.547v5.874a.566.566,0,0,0,.569.569h2.337a.566.566,0,0,0,.569-.569V21.257l2.358.547a.789.789,0,0,0,.842-1.2l-4.253-6.737a.743.743,0,0,0-.358-.316.779.779,0,0,0-.969.295l-4.274,6.737a.783.783,0,0,0,.821,1.221Z" transform="translate(-19097.025 2835.511)" fill="#258f54"/>
    <path id="Path_7517" data-name="Path 7517" d="M118.984,343.274h-2.316a.566.566,0,0,0-.569.569v3.579H104.246v-3.579a.566.566,0,0,0-.569-.569h-2.316a.566.566,0,0,0-.569.569v6.464a.566.566,0,0,0,.569.569h17.644a.566.566,0,0,0,.569-.569v-6.464a.6.6,0,0,0-.59-.568Z" transform="translate(-18986.531 2518.125)" fill="#258f54"/>
  </g>
</svg>
