<svg xmlns="http://www.w3.org/2000/svg" width="31.278" height="37.231" viewBox="0 0 31.278 37.231">
  <g id="wallet" transform="translate(0 0)">
    <path id="Path_7957" data-name="Path 7957" d="M27.723,20.877V40.042a.291.291,0,0,0,.291.291H41.095a.291.291,0,0,0,.291-.291V20.877a.291.291,0,0,0-.291-.291H28.014A.292.292,0,0,0,27.723,20.877Zm0,0" transform="translate(-25.707 -19.089)" fill="#f8ef4a"/>
    <path id="Path_7958" data-name="Path 7958" d="M64.445,20.59h2.616V40.337H64.445Zm0,0" transform="translate(-59.759 -19.093)" fill="#818fa9"/>
    <path id="Path_7959" data-name="Path 7959" d="M144.022,7.628l-9.355,13.36a.291.291,0,0,0,.072.406L145.744,29.1a.292.292,0,0,0,.406-.072l9.355-13.36a.291.291,0,0,0-.071-.406L144.427,7.556A.292.292,0,0,0,144.022,7.628Zm0,0" transform="translate(-124.825 -6.958)" fill="#139047"/>
    <path id="Path_7960" data-name="Path 7960" d="M280.12,102.135l-1.353-.947a.275.275,0,0,1,.043.386l-9.355,13.36a.276.276,0,0,1-.377.091l1.353.947a.292.292,0,0,0,.406-.072l9.355-13.36A.291.291,0,0,0,280.12,102.135Zm0,0" transform="translate(-249.512 -93.83)" fill="#73cc50"/>
    <path id="Path_7961" data-name="Path 7961" d="M220.919,119.273c-1.459-1.022-3.792-.207-5.211,1.819s-1.386,4.5.073,5.519,3.792.207,5.211-1.819S222.378,120.294,220.919,119.273Zm0,0" transform="translate(-199.055 -110.191)" fill="#ffeb96"/>
    <path id="Path_7962" data-name="Path 7962" d="M7.5,175.91v16.419a2.144,2.144,0,0,0,2.144,2.144h23.7a2.144,2.144,0,0,0,2.144-2.144V175.91a2.144,2.144,0,0,0-2.144-2.144H9.644A2.144,2.144,0,0,0,7.5,175.91Zm0,0" transform="translate(-6.955 -161.13)" fill="#0e170f"/>
    <path id="Path_7963" data-name="Path 7963" d="M339.759,173.766h-1.81a2.144,2.144,0,0,1,2.144,2.144v16.419a2.144,2.144,0,0,1-2.144,2.144h1.81a2.144,2.144,0,0,0,2.145-2.144V175.91A2.145,2.145,0,0,0,339.759,173.766Zm0,0" transform="translate(-313.375 -161.13)" fill="#818fa9"/>
    <path id="Path_7964" data-name="Path 7964" d="M292.5,276.528h-4.348a3.372,3.372,0,1,1,0-6.743H292.5a2.256,2.256,0,0,1,2.256,2.256v2.231A2.256,2.256,0,0,1,292.5,276.528Zm0,0" transform="translate(-264.069 -250.168)" fill="#139047"/>
    <path id="Path_7965" data-name="Path 7965" d="M292.5,307.557h-4.348A3.373,3.373,0,0,1,284.876,305a3.372,3.372,0,0,0,3.273,4.183H292.5a2.256,2.256,0,0,0,2.256-2.256V305.3A2.256,2.256,0,0,1,292.5,307.557Zm0,0" transform="translate(-264.069 -282.818)" fill="#73cc50"/>
    <path id="Path_7966" data-name="Path 7966" d="M315.7,297.321a1.477,1.477,0,1,1-1.477-1.477A1.477,1.477,0,0,1,315.7,297.321Zm0,0" transform="translate(-290.008 -274.331)" fill="#f8ef4a"/>
    <path id="Path_7967" data-name="Path 7967" d="M128.892,344.325a6.044,6.044,0,1,1-6.043-6.043A6.044,6.044,0,0,1,128.892,344.325Zm0,0" transform="translate(-108.311 -313.683)" fill="#f8ef4a"/>
    <path id="Path_7968" data-name="Path 7968" d="M149.39,346.781a6.043,6.043,0,0,1-6.835,9.8,6.043,6.043,0,1,0,6.835-9.8Zm0,0" transform="translate(-132.189 -321.565)" fill="#e69012"/>
    <path id="Path_7969" data-name="Path 7969" d="M248.838,39.109a.545.545,0,0,0-.786.176l-.012.018a.554.554,0,0,1-.771.136.545.545,0,0,0-.76.134l-.795,1.135a.545.545,0,1,0,.893.626l.535-.765a1.652,1.652,0,0,0,1.461-.292l.8.563a.545.545,0,1,0,.625-.893Zm0,0" transform="translate(-227.756 -36.174)"/>
    <path id="Path_7970" data-name="Path 7970" d="M356.771,96.23l-.535.765a.545.545,0,1,0,.893.625l.8-1.135a.546.546,0,0,0-.134-.76.554.554,0,0,1-.136-.771.189.189,0,0,1,.013-.017.546.546,0,0,0-.1-.8l-1.2-.838a.545.545,0,0,0-.626.894l.8.563A1.651,1.651,0,0,0,356.771,96.23Zm0,0" transform="translate(-329.658 -86.425)"/>
    <path id="Path_7971" data-name="Path 7971" d="M307.276,289.431a.922.922,0,0,1,.677.292.545.545,0,0,0,.793-.749,2.022,2.022,0,1,0-1.471,3.411,2.008,2.008,0,0,0,1.43-.592.545.545,0,0,0-.771-.771.932.932,0,1,1-.659-1.59Zm0,0" transform="translate(-283.057 -267.373)"/>
    <path id="Path_7972" data-name="Path 7972" d="M29.075,19.147V14.779a2.693,2.693,0,0,0-2.69-2.69H23.491a3.573,3.573,0,0,0-1.315-3.454,3.368,3.368,0,0,0-3.113-.3,5.992,5.992,0,0,0-2.857,2.254,6.544,6.544,0,0,0-.789,1.5H11.866L19.5,1.19l10.59,7.415-1.613,2.3a.545.545,0,1,0,.893.625l1.759-2.512a.838.838,0,0,0-.2-1.166L19.915.152a.837.837,0,0,0-1.166.2L16.225,3.962V1.788a.838.838,0,0,0-.837-.837H2.307a.838.838,0,0,0-.837.837V4.773a.545.545,0,1,0,1.091,0V2.042h1.58V12.089H2.69c-.043,0-.086,0-.129,0V6.955a.545.545,0,1,0-1.091,0v5.427A2.693,2.693,0,0,0,0,14.779V31.2a2.693,2.693,0,0,0,2.69,2.69H6.762a.545.545,0,1,0,0-1.091H2.69a1.6,1.6,0,0,1-1.6-1.6V14.779a1.6,1.6,0,0,1,1.076-1.511l.041-.014a1.592,1.592,0,0,1,.482-.074h23.7a1.6,1.6,0,0,1,1.6,1.6v4.293h-3.9a3.917,3.917,0,1,0,0,7.834h3.9V31.2a1.6,1.6,0,0,1-1.6,1.6H22.218a.545.545,0,1,0,0,1.091h4.167a2.693,2.693,0,0,0,2.69-2.69V26.831A2.807,2.807,0,0,0,31.23,24.1V21.874A2.807,2.807,0,0,0,29.075,19.147ZM17.1,11.214c1.244-1.776,3.241-2.532,4.451-1.685a2.563,2.563,0,0,1,.841,2.56h-5.8A5.573,5.573,0,0,1,17.1,11.214ZM15.135,5.52l-4.6,6.57H7.847V2.041h7.288Zm-9.9-3.478H6.756V12.089H5.232ZM30.139,24.1a1.713,1.713,0,0,1-1.711,1.711H24.08a2.826,2.826,0,1,1,0-5.653h4.348a1.713,1.713,0,0,1,1.711,1.711Zm0,0" transform="translate(0 0)"/>
    <path id="Path_7973" data-name="Path 7973" d="M115.9,330.777a6.589,6.589,0,1,0,6.589,6.589A6.6,6.6,0,0,0,115.9,330.777Zm0,12.087a5.5,5.5,0,1,1,5.5-5.5A5.5,5.5,0,0,1,115.9,342.864Zm0,0" transform="translate(-101.36 -306.725)"/>
    <path id="Path_7974" data-name="Path 7974" d="M174.206,374.47h-.93a.5.5,0,0,1,0-.994h1.78a.545.545,0,0,0,0-1.091h-.669v-.461a.545.545,0,1,0-1.091,0v.461h-.02a1.588,1.588,0,0,0,0,3.176h.93a.5.5,0,0,1,0,.994h-1.78a.545.545,0,0,0,0,1.091h.87v.461a.545.545,0,1,0,1.091,0v-.471a1.588,1.588,0,0,0-.18-3.165Zm0,0" transform="translate(-159.203 -344.374)"/>
  </g>
</svg>
