<svg xmlns="http://www.w3.org/2000/svg" width="12.148" height="33.001" viewBox="0 0 12.148 33.001">
  <g id="Group_420" data-name="Group 420" transform="translate(-317.153 -525.001)">
    <path id="Path_185" data-name="Path 185" d="M17.574,10.952A2.976,2.976,0,1,0,14.6,7.976,2.979,2.979,0,0,0,17.574,10.952Z" transform="translate(305.652 520.002)" fill="#f8ef4a"/>
    <path id="Path_187" data-name="Path 187" d="M7.533,37.235A1.368,1.368,0,0,0,8.87,36.3V48.247a1.686,1.686,0,0,0,3.354.267,1.687,1.687,0,0,0,3.357-.267l0-11.959a1.363,1.363,0,0,0,1.339.948,1.333,1.333,0,0,0,1.38-1.169l0-.016,0-7.122c0-3.469-3.15-5.05-6.077-5.05s-6.069,1.58-6.069,5.05l0,7.1A1.317,1.317,0,0,0,7.533,37.235Z" transform="translate(311 508.045)" fill="#f8ef4a"/>
  </g>
</svg>
